M48
;Layer_Color=9474304
;FILE_FORMAT=2:4
INCH,LZ
;TYPE=PLATED
T1F00S00C0.0150
T2F00S00C0.0200
T3F00S00C0.0220
T4F00S00C0.0280
T5F00S00C0.0400
T6F00S00C0.0500
%
T01
X0006Y0006
X0023
X0043
X0063
X0083
X0103
X0123
X0143
X01471Y00465
Y0064
X01195Y00495
X0112Y00545
X01043Y006475
X01056Y00775
X00905
X00898Y006475
X0096Y00455
X00961Y00345
X0096Y0024
X0112Y00285
X00816Y00345
X0073Y0018
X0053
X0033
X002Y0031
Y0065
X0006Y0051
X00675Y0052
X0158Y0057
X0167Y00545
X01626Y00485
X01681Y00365
X01731Y00325
X01626Y0025
X0163Y0006
X018
X0201
X0215Y00105
X022Y0006
X0238
X0237Y00283
X0231Y00545
X0225Y0069
X0213Y0041
X0263Y004
Y0055
X0266Y00635
X0284Y0074
X0293Y0034
Y002
Y0006
X0273
X0158Y0071
X01622Y00787
X015112Y00864
X016Y01076
X01656Y01042
X0181Y01025
X0193Y01145
X0205Y01265
X0217Y01385
X0229Y01505
X0251Y0155
X0271
X0291
Y0168
Y0188
Y0208
Y0228
Y0127
Y0114
Y0101
X0275Y0089
X0263
X0257Y0079
X0215Y0091
X0227Y0103
X0239Y0115
X0251Y0127
X0271
X01515Y0147
X01485Y01555
X01575Y02314
X0168Y02239
X01751Y02164
X01774Y02302
X01366Y0186
X01262Y01855
X01327Y01648
X013981Y0158
X014Y01475
X01235Y01435
X01242Y01186
X01246Y01029
X013142Y01008
X014056Y01019
X014122Y00865
X013612Y0079
X0113Y0081
X0098Y009
X00985Y01
X00915Y0113
X00763
X00775Y0124
X00814Y01423
X00942Y01451
X00625Y01545
X0032Y0166
X002Y0176
X0006Y0186
Y0206
Y0226
X005271Y02344
X006971Y02343
X00516Y0208
X0006Y0166
X002Y0146
X0006Y0126
X002Y0111
Y0085
X0006
X00835Y009
X01187Y01644
X0126Y0286
X0146
X0106
X0086
X0067
X0052
X0027
X0006
Y0266
Y0246
X01503Y024622
X01534
Y024962
X01503
X01523Y026232
X0166Y0286
X0186
X0206
X0226
X0246
X0271Y0288
X0291
Y0268
Y0248
T02
X02935Y0044
Y0049
Y0054
Y0059
Y0064
Y0069
Y0074
Y0079
Y0084
Y0089
T03
X00715Y01365
Y01415
X01011Y01359
T04
X00675Y0035
X00605Y0072
X013072Y00435
X013782Y0049
X01491Y00365
X02091Y00335
X02331Y0018
X02389Y00564
X02265Y00786
X01796Y00915
X01509Y01299
X016408Y01541
Y01741
X01739Y01801
X01804Y016755
X01791Y02047
X01714Y02041
X01542Y02176
X01436Y0226
X01361Y02215
X01291
X01001Y0177
X01006Y0157
X00883Y016765
X00641Y0168
X00676Y0187
X00801
X0068Y0128
X00675Y00975
X00973Y01252
X01094Y01205
X01118Y01278
X013574Y026288
X0093Y0276
X002961Y027461
X016024Y025838
X01813Y025682
X01878Y025382
T05
X02458Y00094
Y00194
Y00294
Y00394
Y00494
X02459Y00643
Y00743
Y00843
Y00943
Y01043
T06
X00472Y00274
Y00412
X00471Y00602
Y0074
X0047Y009334
Y010712
Y01209
X00471Y01388
Y01526
X004754Y0256
X006132
X00751
M30
