%FSLAX24Y24*%
%MOIN*%
G70*
G01*
G75*
G04 Layer_Physical_Order=1*
G04 Layer_Color=255*
%ADD10O,0.0138X0.0669*%
%ADD11R,0.0236X0.0236*%
%ADD12O,0.0866X0.0236*%
%ADD13R,0.0374X0.0394*%
%ADD14R,0.0197X0.0157*%
%ADD15R,0.0850X0.1080*%
%ADD16R,0.1004X0.0965*%
%ADD17O,0.0906X0.0236*%
%ADD18R,0.0360X0.0300*%
%ADD19R,0.0760X0.0200*%
%ADD20R,0.0300X0.0360*%
%ADD21R,0.0200X0.0760*%
%ADD22O,0.0669X0.0177*%
%ADD23R,0.0681X0.0728*%
%ADD24O,0.0610X0.0177*%
%ADD25R,0.0394X0.0374*%
%ADD26R,0.1063X0.0630*%
%ADD27R,0.0906X0.1004*%
%ADD28R,0.1063X0.0512*%
%ADD29C,0.0200*%
%ADD30C,0.0100*%
%ADD31C,0.0250*%
%ADD32C,0.0150*%
%ADD33C,0.0400*%
%ADD34C,0.0750*%
%ADD35C,0.0800*%
%ADD36C,0.0500*%
%ADD37C,0.0400*%
%ADD38C,0.1000*%
%ADD39R,0.1000X0.1000*%
%ADD40R,0.1000X0.1000*%
%ADD41R,0.0650X0.0650*%
%ADD42C,0.0650*%
%ADD43O,0.0600X0.0350*%
%ADD44C,0.0300*%
%ADD45C,0.0500*%
%ADD46C,0.0250*%
%ADD47C,0.0700*%
G36*
X15155Y8953D02*
X15201Y8985D01*
X15201Y8985D01*
Y8985D01*
X15239Y9010D01*
Y9010D01*
D01*
X15283Y8980D01*
X15335Y8970D01*
X15388Y8980D01*
X15432Y9010D01*
X15462Y9054D01*
X15472Y9106D01*
Y9347D01*
X15718D01*
Y9253D01*
X15776D01*
Y8950D01*
X15776Y8950D01*
X15776D01*
X15791Y8876D01*
X15833Y8813D01*
X16026Y8620D01*
Y8467D01*
X14879D01*
X14685Y8661D01*
Y8851D01*
X14771Y8980D01*
X14824Y8970D01*
X14876Y8980D01*
X14920Y9010D01*
X14941Y9010D01*
X14958Y8985D01*
X15005Y8953D01*
Y9372D01*
X15155D01*
Y8953D01*
D02*
G37*
G36*
X17166Y12312D02*
Y10465D01*
X16410Y9709D01*
X16222D01*
X16222Y9777D01*
X16222D01*
Y9813D01*
X16257Y9848D01*
X16257D01*
Y10070D01*
X15970D01*
Y10145D01*
X15895D01*
Y10442D01*
X15683D01*
Y10442D01*
X15647D01*
X15612Y10477D01*
Y10477D01*
X15349D01*
X15310Y10569D01*
X17047Y12306D01*
X17071Y12341D01*
X17166Y12312D01*
D02*
G37*
G36*
X15800Y19660D02*
X15430D01*
Y20180D01*
X15800D01*
Y19660D01*
D02*
G37*
G36*
X14620Y10525D02*
X14564Y10442D01*
X14423D01*
Y10258D01*
X14211Y10046D01*
X14180Y9999D01*
X14169Y9945D01*
X14169Y9945D01*
Y9866D01*
X14131Y9835D01*
Y9372D01*
Y8953D01*
X14178Y8985D01*
X14178Y8985D01*
Y8985D01*
X14215Y9010D01*
Y9010D01*
D01*
X14260Y8980D01*
X14312Y8970D01*
X14364Y8980D01*
X14450Y8851D01*
Y8659D01*
X14443Y8620D01*
X14452Y8575D01*
X14477Y8537D01*
X14700Y8314D01*
X14702Y8305D01*
X14727Y8267D01*
X14765Y8242D01*
X14810Y8233D01*
X14821D01*
X14832Y8230D01*
X14844Y8233D01*
X16026D01*
Y7967D01*
X16017Y7954D01*
X16001Y7870D01*
X16008Y7833D01*
X15920Y7786D01*
X15873Y7833D01*
X15835Y7858D01*
X15790Y7867D01*
X15060D01*
X15015Y7858D01*
X14977Y7833D01*
X14741Y7597D01*
X14715Y7558D01*
X14715Y7556D01*
X14622Y7518D01*
X14620Y7520D01*
X14568Y7530D01*
X14515Y7520D01*
X14471Y7490D01*
X14410Y7489D01*
X14408Y7490D01*
X14408D01*
X14408Y7490D01*
Y7490D01*
X14364Y7520D01*
X14312Y7530D01*
X14260Y7520D01*
X14215Y7490D01*
X14154Y7489D01*
X14152Y7490D01*
X14152D01*
X14152Y7490D01*
Y7490D01*
X14108Y7520D01*
X14056Y7530D01*
X14004Y7520D01*
X13959Y7490D01*
X13898Y7489D01*
X13897Y7490D01*
X13897D01*
X13897Y7490D01*
Y7490D01*
X13852Y7520D01*
X13800Y7530D01*
X13748Y7520D01*
X13703Y7490D01*
D01*
X13666Y7515D01*
X13666Y7515D01*
Y7515D01*
X13619Y7547D01*
Y7128D01*
X13469D01*
Y7547D01*
X13457Y7539D01*
X13369Y7586D01*
Y7750D01*
X13360Y7795D01*
X13335Y7833D01*
X12985Y8183D01*
X12979Y8187D01*
X13008Y8283D01*
X13672D01*
X13717Y8292D01*
X13755Y8317D01*
X13755Y8317D01*
X13755Y8317D01*
X13883Y8445D01*
X13908Y8483D01*
X13917Y8528D01*
X13917Y8528D01*
X13917Y8528D01*
Y8528D01*
Y8838D01*
X13981Y8934D01*
Y9372D01*
Y9791D01*
X13934Y9760D01*
X13917Y9734D01*
X13897Y9734D01*
X13852Y9764D01*
X13800Y9774D01*
X13748Y9764D01*
X13703Y9734D01*
X13642Y9733D01*
X13641Y9734D01*
X13641D01*
X13641Y9734D01*
Y9734D01*
X13597Y9764D01*
X13597Y9765D01*
X13623Y9899D01*
X13751Y10027D01*
X13782Y10073D01*
X13793Y10128D01*
X13793Y10128D01*
Y10548D01*
X14610D01*
X14620Y10525D01*
D02*
G37*
G36*
X16584Y24468D02*
X16854D01*
Y24078D01*
X16584D01*
X16344Y24318D01*
X15824D01*
Y24488D01*
X16564D01*
X16584Y24468D01*
D02*
G37*
G36*
X29883Y117D02*
X19750D01*
Y1563D01*
X19970D01*
X20005Y1556D01*
X20758D01*
X20758Y1503D01*
X20758D01*
Y1467D01*
X20723Y1432D01*
X20723D01*
Y1210D01*
X21297D01*
Y1432D01*
X21262D01*
Y1503D01*
X21262D01*
X21262Y1556D01*
X23110D01*
X23151Y1525D01*
X23228Y1493D01*
X23310Y1482D01*
X23392Y1493D01*
X23469Y1525D01*
X23535Y1575D01*
X23585Y1641D01*
X23617Y1718D01*
X23628Y1800D01*
X23617Y1882D01*
X23585Y1959D01*
X23535Y2025D01*
X23517Y2038D01*
X23549Y2133D01*
X23900D01*
X23945Y2142D01*
X23983Y2167D01*
X23983Y2167D01*
X23983Y2167D01*
X24406Y2590D01*
X24478Y2560D01*
X24580Y2547D01*
X24682Y2560D01*
X24777Y2600D01*
X24858Y2662D01*
X24920Y2743D01*
X24960Y2838D01*
X24973Y2940D01*
X24960Y3042D01*
X24930Y3114D01*
X27599Y5783D01*
X29015D01*
X29052Y5727D01*
X29092Y5700D01*
Y5600D01*
X29052Y5573D01*
X28999Y5494D01*
X28980Y5400D01*
X28999Y5306D01*
X29052Y5227D01*
X29092Y5200D01*
Y5100D01*
X29052Y5073D01*
X29015Y5017D01*
X27820D01*
X27775Y5008D01*
X27737Y4983D01*
X24961Y2207D01*
X24861Y2214D01*
X24858Y2218D01*
X24777Y2280D01*
X24682Y2320D01*
X24580Y2333D01*
X24478Y2320D01*
X24383Y2280D01*
X24302Y2218D01*
X24240Y2137D01*
X24200Y2042D01*
X24187Y1940D01*
X24200Y1838D01*
X24240Y1743D01*
X24302Y1662D01*
X24383Y1600D01*
X24478Y1560D01*
X24580Y1547D01*
X24682Y1560D01*
X24777Y1600D01*
X24858Y1662D01*
X24920Y1743D01*
X24960Y1838D01*
X24967Y1893D01*
X25003Y1917D01*
X27869Y4783D01*
X29015D01*
X29052Y4727D01*
X29092Y4700D01*
Y4600D01*
X29052Y4573D01*
X28999Y4494D01*
X28980Y4400D01*
X28999Y4306D01*
X29052Y4227D01*
X29131Y4174D01*
X29225Y4155D01*
X29475D01*
X29569Y4174D01*
X29648Y4227D01*
X29701Y4306D01*
X29720Y4400D01*
X29701Y4494D01*
X29648Y4573D01*
X29608Y4600D01*
Y4700D01*
X29648Y4727D01*
X29701Y4806D01*
X29720Y4900D01*
X29701Y4994D01*
X29648Y5073D01*
X29608Y5100D01*
Y5200D01*
X29648Y5227D01*
X29701Y5306D01*
X29720Y5400D01*
X29701Y5494D01*
X29648Y5573D01*
X29608Y5600D01*
Y5700D01*
X29648Y5727D01*
X29701Y5806D01*
X29720Y5900D01*
X29701Y5994D01*
X29648Y6073D01*
X29608Y6100D01*
Y6200D01*
X29648Y6227D01*
X29701Y6306D01*
X29720Y6400D01*
X29701Y6494D01*
X29648Y6573D01*
X29608Y6600D01*
Y6700D01*
X29648Y6727D01*
X29701Y6806D01*
X29720Y6900D01*
X29701Y6994D01*
X29648Y7073D01*
X29608Y7100D01*
Y7200D01*
X29648Y7227D01*
X29701Y7306D01*
X29720Y7400D01*
X29701Y7494D01*
X29648Y7573D01*
X29641Y7578D01*
X29637Y7678D01*
X29671Y7704D01*
X29715Y7761D01*
X29742Y7825D01*
X28958D01*
X28985Y7761D01*
X29029Y7704D01*
X29063Y7678D01*
X29059Y7578D01*
X29052Y7573D01*
X29015Y7517D01*
X28712D01*
Y7613D01*
X28712D01*
Y7825D01*
X28415D01*
Y7900D01*
X28340D01*
Y8187D01*
X28118D01*
Y8152D01*
X28047D01*
Y8152D01*
X27523D01*
Y8094D01*
X26910D01*
X26836Y8079D01*
X26773Y8037D01*
X25563Y6827D01*
X25521Y6764D01*
X25506Y6690D01*
Y6480D01*
X25072Y6046D01*
X25025Y6066D01*
D01*
X24980Y6084D01*
Y6820D01*
X24200D01*
Y6040D01*
X24936D01*
X24954Y5995D01*
D01*
X24974Y5948D01*
X24870Y5844D01*
X24131D01*
X24115Y5865D01*
X24049Y5915D01*
X23972Y5947D01*
X23890Y5958D01*
X23808Y5947D01*
X23731Y5915D01*
X23665Y5865D01*
X23615Y5799D01*
X23583Y5722D01*
X23572Y5640D01*
X23583Y5558D01*
X23615Y5481D01*
X23616Y5480D01*
X23190Y5054D01*
X22897D01*
Y5054D01*
Y5118D01*
X22897Y5124D01*
X22897Y5124D01*
X22897D01*
Y5340D01*
X22610D01*
Y5490D01*
X22897D01*
Y5712D01*
X22897D01*
Y5800D01*
X22905Y5802D01*
X22943Y5827D01*
X22943Y5827D01*
X22943Y5827D01*
X24271Y7155D01*
X24312Y7152D01*
X24393Y7090D01*
X24488Y7050D01*
X24590Y7037D01*
X24692Y7050D01*
X24787Y7090D01*
X24868Y7152D01*
X24930Y7233D01*
X24970Y7328D01*
X24983Y7430D01*
X24970Y7532D01*
X24930Y7627D01*
X24868Y7708D01*
X24787Y7770D01*
X24692Y7810D01*
X24590Y7823D01*
X24488Y7810D01*
X24393Y7770D01*
X24312Y7708D01*
X24250Y7627D01*
X24210Y7532D01*
X24197Y7430D01*
X24199Y7415D01*
X22811Y6027D01*
X22033D01*
X21986Y6037D01*
X21317D01*
X21245Y6022D01*
X21185Y5982D01*
X21144Y5921D01*
X21130Y5850D01*
X21144Y5779D01*
X21185Y5718D01*
X21245Y5678D01*
X21294Y5668D01*
Y5568D01*
X21232Y5555D01*
X21159Y5507D01*
X21111Y5435D01*
X21109Y5425D01*
X21651D01*
Y5275D01*
X21109D01*
X21111Y5265D01*
X21159Y5193D01*
X21232Y5145D01*
X21294Y5132D01*
Y5032D01*
X21245Y5022D01*
X21185Y4982D01*
X21144Y4921D01*
X21130Y4850D01*
X21144Y4779D01*
X21185Y4718D01*
X21245Y4678D01*
X21317Y4663D01*
X21986D01*
X22001Y4666D01*
X22358D01*
Y4523D01*
X22416D01*
Y3797D01*
X22378D01*
Y3273D01*
X22882D01*
Y3797D01*
X22804D01*
Y4523D01*
X22862D01*
Y4666D01*
X23270D01*
X23344Y4681D01*
X23407Y4723D01*
X23407Y4723D01*
X23407Y4723D01*
X24049Y5365D01*
X24049Y5365D01*
X24115Y5415D01*
X24146Y5456D01*
X24482D01*
X24489Y5356D01*
X24469Y5354D01*
X24366Y5311D01*
X24277Y5243D01*
X24209Y5154D01*
X24166Y5051D01*
X24161Y5015D01*
X24999D01*
X24994Y5051D01*
X24951Y5154D01*
X24883Y5243D01*
X24794Y5311D01*
X24691Y5354D01*
X24671Y5356D01*
X24678Y5456D01*
X24950D01*
X25024Y5471D01*
X25087Y5513D01*
X25087Y5513D01*
X25087Y5513D01*
X25837Y6263D01*
X25879Y6326D01*
X25894Y6400D01*
X25894Y6400D01*
X25894Y6400D01*
Y6400D01*
Y6610D01*
X26990Y7706D01*
X27523D01*
Y7648D01*
X27591D01*
Y7152D01*
X27523D01*
Y6648D01*
X28047D01*
Y7152D01*
X27979D01*
Y7648D01*
X28047Y7648D01*
Y7648D01*
X28083D01*
X28118Y7613D01*
Y7613D01*
X28178D01*
X28225Y7525D01*
X28197Y7484D01*
X28181Y7400D01*
X28197Y7316D01*
X28245Y7245D01*
X28183Y7152D01*
X28153D01*
Y6648D01*
X28677D01*
Y6706D01*
X29079D01*
X29092Y6663D01*
Y6600D01*
X29052Y6573D01*
X28999Y6494D01*
X28994Y6467D01*
X26780D01*
X26755Y6505D01*
X26684Y6553D01*
X26600Y6569D01*
X26516Y6553D01*
X26445Y6505D01*
X26397Y6434D01*
X26381Y6350D01*
X26397Y6266D01*
X26445Y6195D01*
X26516Y6147D01*
X26600Y6131D01*
X26684Y6147D01*
X26755Y6195D01*
X26780Y6233D01*
X29048D01*
X29052Y6227D01*
X29092Y6200D01*
Y6100D01*
X29052Y6073D01*
X29015Y6017D01*
X27550D01*
X27505Y6008D01*
X27467Y5983D01*
X24768Y3284D01*
X24682Y3320D01*
X24580Y3333D01*
X24478Y3320D01*
X24383Y3280D01*
X24302Y3218D01*
X24240Y3137D01*
X24200Y3042D01*
X24187Y2940D01*
X24200Y2838D01*
X24236Y2752D01*
X23851Y2367D01*
X20462D01*
X20452Y2382D01*
X20391Y2422D01*
X20320Y2437D01*
X19750D01*
Y2563D01*
X20320D01*
X20391Y2578D01*
X20452Y2618D01*
X20492Y2679D01*
X20493Y2683D01*
X22378D01*
Y2643D01*
X22882D01*
Y2683D01*
X23540D01*
X23545Y2675D01*
X23616Y2627D01*
X23700Y2611D01*
X23784Y2627D01*
X23855Y2675D01*
X23903Y2746D01*
X23919Y2830D01*
X23903Y2914D01*
X23855Y2985D01*
X23784Y3033D01*
X23700Y3049D01*
X23616Y3033D01*
X23545Y2985D01*
X23500Y2917D01*
X22882D01*
Y3167D01*
X22378D01*
Y2917D01*
X20399D01*
X20391Y2922D01*
X20343Y2932D01*
Y3032D01*
X20405Y3045D01*
X20477Y3093D01*
X20525Y3165D01*
X20527Y3175D01*
X20005D01*
Y3250D01*
X19930D01*
Y3472D01*
X19853D01*
X19815Y3565D01*
X20800Y4550D01*
X20950Y4700D01*
Y9400D01*
X24750Y13200D01*
X29883D01*
Y117D01*
D02*
G37*
G36*
X13872Y6100D02*
X13442D01*
Y6500D01*
X13732Y6790D01*
Y7020D01*
X13872D01*
Y6100D01*
D02*
G37*
G36*
X11860Y13460D02*
X11550Y13070D01*
X11510Y13000D01*
X11520Y13010D01*
Y12710D01*
X11525Y12705D01*
X11290Y12460D01*
X10990D01*
X10830Y12620D01*
Y12920D01*
X10990Y13080D01*
X11200Y13085D01*
Y13760D01*
X11370Y13930D01*
Y14170D01*
X11860D01*
Y13460D01*
D02*
G37*
G36*
X16483Y15798D02*
X16646D01*
Y15798D01*
X16646Y15798D01*
X16695Y15798D01*
X16716Y15777D01*
Y14194D01*
X14290D01*
X14252Y14286D01*
X15663Y15697D01*
X15688Y15735D01*
X15688Y15735D01*
X15688Y15735D01*
X15697Y15780D01*
Y15970D01*
X15881D01*
X15941Y15981D01*
X15992Y16015D01*
X16025Y16066D01*
X16121Y16037D01*
Y15798D01*
X16333D01*
Y16095D01*
X16483D01*
Y15798D01*
D02*
G37*
G36*
X15244Y16186D02*
D01*
D01*
Y16186D01*
Y16186D01*
X15244Y16186D01*
X15232Y16126D01*
X15244Y16066D01*
X15278Y16015D01*
X15329Y15981D01*
X15389Y15970D01*
X15463D01*
Y15829D01*
X14101Y14467D01*
X13500D01*
X13461Y14459D01*
X13413Y14548D01*
X15131Y16265D01*
X15259D01*
X15244Y16186D01*
D02*
G37*
G36*
X16590Y16530D02*
X16010D01*
X15990Y16550D01*
X15740D01*
Y16720D01*
X15980D01*
X16180Y16920D01*
X16590D01*
Y16530D01*
D02*
G37*
G36*
X15150Y19850D02*
Y19660D01*
X15240Y19570D01*
X15590D01*
Y19400D01*
X15240D01*
X14980Y19140D01*
X14730D01*
Y20140D01*
X14860D01*
X15150Y19850D01*
D02*
G37*
G36*
X18660Y19000D02*
X17850Y18900D01*
X17600Y19150D01*
X17240D01*
Y19320D01*
X17600D01*
X17670Y19390D01*
X18770D01*
X18660Y19000D01*
D02*
G37*
G36*
X29883Y15050D02*
X24050D01*
X20900Y11900D01*
X18750Y9750D01*
Y4550D01*
X18350Y4150D01*
Y3472D01*
X18190D01*
Y3250D01*
X18115D01*
Y3175D01*
X17593D01*
X17595Y3165D01*
X17643Y3093D01*
X17715Y3045D01*
X17777Y3032D01*
Y2932D01*
X17729Y2922D01*
X17721Y2917D01*
X17059D01*
X14173Y5803D01*
Y6090D01*
X14266Y6129D01*
X14377Y6017D01*
X14415Y5992D01*
X14460Y5983D01*
X15664D01*
X15693Y5887D01*
X15645Y5855D01*
X15597Y5784D01*
X15581Y5700D01*
X15597Y5616D01*
X15645Y5545D01*
X15716Y5497D01*
X15800Y5481D01*
X15884Y5497D01*
X15955Y5545D01*
X15980Y5583D01*
X16410D01*
X16455Y5592D01*
X16493Y5617D01*
X16493Y5617D01*
X16493Y5617D01*
X16659Y5783D01*
X16913D01*
Y5712D01*
X16913D01*
Y5490D01*
X17200D01*
Y5340D01*
X16913D01*
Y5118D01*
X16913D01*
Y5114D01*
X16842Y5044D01*
X16357D01*
X16344Y5053D01*
X16260Y5069D01*
X16176Y5053D01*
X16105Y5005D01*
X16057Y4934D01*
X16041Y4850D01*
X16057Y4766D01*
X16105Y4695D01*
X16176Y4647D01*
X16260Y4631D01*
X16344Y4647D01*
X16357Y4656D01*
X16948D01*
Y4523D01*
X17452D01*
Y4656D01*
X18110D01*
X18145Y4663D01*
X18403D01*
X18475Y4678D01*
X18535Y4718D01*
X18576Y4779D01*
X18590Y4850D01*
X18576Y4921D01*
X18535Y4982D01*
X18475Y5022D01*
X18426Y5032D01*
Y5132D01*
X18488Y5145D01*
X18561Y5193D01*
X18609Y5265D01*
X18611Y5275D01*
X18069D01*
Y5425D01*
X18611D01*
X18609Y5435D01*
X18561Y5507D01*
X18488Y5555D01*
X18426Y5568D01*
Y5668D01*
X18475Y5678D01*
X18535Y5718D01*
X18576Y5779D01*
X18590Y5850D01*
X18576Y5921D01*
X18535Y5982D01*
X18475Y6022D01*
X18403Y6037D01*
X17734D01*
X17663Y6022D01*
X17655Y6017D01*
X16610D01*
X16565Y6008D01*
X16527Y5983D01*
X16361Y5817D01*
X15980D01*
X15955Y5855D01*
X15907Y5887D01*
X15936Y5983D01*
X16200D01*
X16245Y5992D01*
X16283Y6017D01*
X16283Y6017D01*
X16283Y6017D01*
X16549Y6283D01*
X17561D01*
X17562Y6279D01*
X17602Y6218D01*
X17663Y6178D01*
X17734Y6163D01*
X18403D01*
X18475Y6178D01*
X18535Y6218D01*
X18576Y6279D01*
X18590Y6350D01*
X18576Y6421D01*
X18535Y6482D01*
X18475Y6522D01*
X18403Y6537D01*
X17734D01*
X17663Y6522D01*
X17655Y6517D01*
X16500D01*
X16455Y6508D01*
X16417Y6483D01*
X16151Y6217D01*
X14953D01*
X14905Y6305D01*
X14913Y6316D01*
X14929Y6400D01*
X14913Y6484D01*
X14865Y6555D01*
X14794Y6603D01*
X14794D01*
X14729Y6647D01*
X14776Y6735D01*
X14824Y6726D01*
X14876Y6736D01*
X14885Y6742D01*
X14973Y6695D01*
Y6610D01*
X14982Y6565D01*
X14982Y6565D01*
X14982Y6565D01*
X15007Y6527D01*
X15127Y6407D01*
X15165Y6382D01*
X15210Y6373D01*
X15890D01*
X15935Y6382D01*
X15973Y6407D01*
X15973Y6407D01*
X15973Y6407D01*
X16349Y6783D01*
X17561D01*
X17562Y6779D01*
X17602Y6718D01*
X17663Y6678D01*
X17734Y6663D01*
X18403D01*
X18475Y6678D01*
X18535Y6718D01*
X18576Y6779D01*
X18590Y6850D01*
X18576Y6921D01*
X18535Y6982D01*
X18475Y7022D01*
X18403Y7037D01*
X17734D01*
X17663Y7022D01*
X17655Y7017D01*
X16300D01*
X16255Y7008D01*
X16217Y6983D01*
X15841Y6607D01*
X15276D01*
X15255Y6667D01*
X15257Y6713D01*
X15285Y6736D01*
X15335Y6726D01*
X15388Y6736D01*
X15432Y6766D01*
X15462Y6810D01*
X15472Y6862D01*
Y7011D01*
X15601D01*
X15645Y6945D01*
X15716Y6897D01*
X15800Y6881D01*
X15884Y6897D01*
X15955Y6945D01*
X16003Y7016D01*
X16019Y7100D01*
X16003Y7184D01*
X15955Y7255D01*
X15884Y7303D01*
X15800Y7319D01*
X15716Y7303D01*
X15645Y7255D01*
X15638Y7245D01*
X15472D01*
Y7394D01*
X15462Y7446D01*
X15432Y7490D01*
X15388Y7520D01*
X15335Y7530D01*
X15283Y7520D01*
X15239Y7490D01*
X15177Y7489D01*
X15176Y7490D01*
X15176D01*
X15176Y7490D01*
Y7490D01*
X15132Y7520D01*
X15122Y7522D01*
X15113Y7552D01*
X15173Y7633D01*
X15741D01*
X16107Y7267D01*
X16145Y7242D01*
X16190Y7233D01*
X17592D01*
X17602Y7218D01*
X17663Y7178D01*
X17734Y7163D01*
X18403D01*
X18475Y7178D01*
X18535Y7218D01*
X18576Y7279D01*
X18590Y7350D01*
X18576Y7421D01*
X18535Y7482D01*
X18475Y7522D01*
X18403Y7537D01*
X17734D01*
X17663Y7522D01*
X17602Y7482D01*
X17592Y7467D01*
X16239D01*
X16136Y7570D01*
X16183Y7658D01*
X16220Y7651D01*
X16298Y7666D01*
X17719D01*
X17734Y7663D01*
X18403D01*
X18475Y7678D01*
X18535Y7718D01*
X18576Y7779D01*
X18590Y7850D01*
X18576Y7921D01*
X18535Y7982D01*
X18475Y8022D01*
X18426Y8032D01*
Y8132D01*
X18488Y8145D01*
X18561Y8193D01*
X18609Y8265D01*
X18611Y8275D01*
X17527D01*
X17529Y8265D01*
X17577Y8193D01*
X17642Y8149D01*
X17613Y8054D01*
X16414D01*
Y8700D01*
X16399Y8774D01*
X16357Y8837D01*
X16164Y9030D01*
Y9253D01*
X16222D01*
Y9321D01*
X16490D01*
X16564Y9336D01*
X16627Y9378D01*
X16627Y9378D01*
X16627Y9378D01*
X17497Y10248D01*
X17539Y10311D01*
X17554Y10385D01*
X17554Y10385D01*
X17554Y10385D01*
Y10385D01*
Y15178D01*
X17642D01*
Y15261D01*
X17788D01*
Y15178D01*
X18292D01*
Y15702D01*
X18292D01*
Y15738D01*
X18327Y15773D01*
X18327D01*
Y15995D01*
X17753D01*
Y15773D01*
X17788D01*
Y15702D01*
X17788D01*
X17788Y15659D01*
X17642D01*
Y15702D01*
X17138D01*
D01*
X17138D01*
X17104Y15736D01*
Y15808D01*
X17104D01*
X17138D01*
X17174Y15808D01*
X17174Y15808D01*
Y15808D01*
X17642D01*
Y16332D01*
X17584D01*
Y17762D01*
X17615Y17785D01*
X17665Y17851D01*
X17697Y17928D01*
X17699Y17941D01*
X18593Y18835D01*
X18610Y18833D01*
X18679Y18842D01*
X18744Y18869D01*
X18799Y18911D01*
X18841Y18966D01*
X18868Y19031D01*
X18877Y19100D01*
Y24027D01*
X18913Y24042D01*
X18968Y24084D01*
X19011Y24140D01*
X19037Y24204D01*
X19046Y24273D01*
X19037Y24342D01*
X19011Y24407D01*
X18968Y24462D01*
X18951Y24476D01*
X18958Y24498D01*
X18958D01*
X18958Y24498D01*
Y24602D01*
X18562D01*
Y24540D01*
X18461D01*
Y24540D01*
Y24606D01*
X18461Y24611D01*
X18461Y24611D01*
X18461D01*
Y24828D01*
X17887D01*
Y24611D01*
X17887D01*
X17887Y24611D01*
X17887Y24606D01*
X17821Y24540D01*
X16774D01*
X16743Y24536D01*
X16733Y24556D01*
X16786Y24641D01*
X17026D01*
Y24760D01*
X17222D01*
Y24641D01*
X17726D01*
Y25165D01*
X17616D01*
Y25380D01*
X17707D01*
Y25884D01*
X17183D01*
Y25884D01*
X17147D01*
X17112Y25919D01*
Y25919D01*
X16890D01*
Y25632D01*
Y25345D01*
X17112D01*
Y25380D01*
X17183D01*
Y25380D01*
X17331D01*
Y25165D01*
X17222D01*
Y25046D01*
X17026D01*
Y25165D01*
X16522D01*
X16522Y25165D01*
Y25165D01*
X16439Y25172D01*
X16424Y25246D01*
X16382Y25308D01*
X16320Y25350D01*
X16270Y25360D01*
Y25112D01*
X16250Y25092D01*
X15800D01*
X15780Y25112D01*
Y25358D01*
X15740Y25350D01*
X15677Y25308D01*
X15640Y25252D01*
X15614Y25252D01*
X15614D01*
X15558Y25252D01*
X15558Y25252D01*
X15558Y25252D01*
X15415D01*
Y24962D01*
X15265D01*
Y25252D01*
X15249D01*
Y24788D01*
Y24324D01*
X15594D01*
X15594Y24324D01*
X15594Y24324D01*
X15614Y24324D01*
X15614D01*
X15682Y24324D01*
X15703Y24294D01*
X15754Y24260D01*
X15813Y24248D01*
X16247D01*
X16268Y24252D01*
X16316D01*
X16522Y24046D01*
Y24011D01*
X16732D01*
X16774Y24006D01*
X18343D01*
Y20122D01*
X18257D01*
Y20122D01*
X18045D01*
Y19825D01*
X17895D01*
Y20122D01*
X17683D01*
Y19950D01*
X17595Y19903D01*
X17580Y19912D01*
Y19730D01*
X17510Y19660D01*
X16990D01*
X16981Y19669D01*
X16824D01*
X16865Y19608D01*
X16886Y19593D01*
X16856Y19548D01*
X16844Y19488D01*
X16856Y19428D01*
X16890Y19377D01*
Y19343D01*
X16856Y19292D01*
X16844Y19232D01*
X16856Y19172D01*
X16890Y19121D01*
Y19087D01*
X16856Y19036D01*
X16844Y18976D01*
X16856Y18916D01*
X16890Y18865D01*
X16941Y18831D01*
X17001Y18820D01*
X17493D01*
X17553Y18831D01*
X17604Y18865D01*
X17635Y18912D01*
X17734Y18922D01*
X17803Y18853D01*
X17699Y18697D01*
X17321Y18319D01*
X17308Y18317D01*
X17231Y18285D01*
X17165Y18235D01*
X17115Y18169D01*
X17083Y18092D01*
X17072Y18010D01*
X17080Y17953D01*
X16990Y17909D01*
X16963Y17936D01*
X16932Y17982D01*
X16707Y18207D01*
X16644Y18249D01*
X16570Y18264D01*
X14601D01*
X14527Y18249D01*
X14464Y18207D01*
X14242Y17985D01*
X14149Y18023D01*
Y19068D01*
X14928D01*
Y19074D01*
X14980D01*
X15005Y19079D01*
X15027Y19093D01*
X15082Y19148D01*
X15159Y19164D01*
X15206Y19125D01*
X15229Y19076D01*
X15202Y19036D01*
X15191Y18976D01*
X15202Y18916D01*
X15236Y18865D01*
X15287Y18831D01*
X15347Y18820D01*
X15839D01*
X15899Y18831D01*
X15950Y18865D01*
X15984Y18916D01*
X15996Y18976D01*
X15984Y19036D01*
X15950Y19087D01*
Y19121D01*
X15984Y19172D01*
X15996Y19232D01*
X15984Y19292D01*
X15950Y19343D01*
Y19377D01*
X15984Y19428D01*
X15996Y19488D01*
X15984Y19548D01*
X15950Y19599D01*
Y19633D01*
X15984Y19684D01*
X15996Y19744D01*
X15984Y19804D01*
X15950Y19855D01*
X15899Y19889D01*
X15866Y19895D01*
Y20180D01*
X15862Y20201D01*
Y20597D01*
X15862D01*
Y20633D01*
X15897Y20668D01*
X15897D01*
Y20890D01*
X15323D01*
Y20668D01*
X15358D01*
Y20597D01*
X15358D01*
Y20073D01*
X15364D01*
Y19900D01*
X15347D01*
X15287Y19889D01*
X15236Y19855D01*
X15236Y19855D01*
X15211Y19875D01*
Y19875D01*
X15211Y19875D01*
X15197Y19897D01*
X14928Y20166D01*
Y20202D01*
X14882D01*
X14860Y20206D01*
X14730D01*
X14708Y20202D01*
X13892D01*
Y19695D01*
X13862Y19675D01*
X13826Y19621D01*
X13813Y19556D01*
Y17540D01*
X13802Y17524D01*
X13787Y17450D01*
X13802Y17376D01*
X13813Y17360D01*
Y17050D01*
X13735D01*
X13675Y17039D01*
X13624Y17005D01*
X13590Y16954D01*
X13583Y16917D01*
X13487Y16888D01*
X13403Y16973D01*
X13365Y16998D01*
X13320Y17007D01*
X12807D01*
Y17133D01*
X12922D01*
Y17657D01*
X12922D01*
Y17693D01*
X12957Y17728D01*
X12957D01*
Y17950D01*
X12383D01*
Y17728D01*
X12418D01*
Y17657D01*
X12418D01*
Y17133D01*
X12573D01*
Y17005D01*
X12325D01*
Y16640D01*
X12090D01*
Y16515D01*
X12570D01*
Y16365D01*
X12090D01*
Y16240D01*
X12325D01*
Y15875D01*
X12573D01*
Y15697D01*
X12438D01*
Y15173D01*
X12942D01*
Y15697D01*
X12807D01*
Y15875D01*
X12815D01*
Y15993D01*
X13280D01*
X13325Y16002D01*
X13363Y16027D01*
X13363Y16027D01*
X13363Y16027D01*
X13454Y16119D01*
X13550Y16090D01*
X13557Y16053D01*
X13599Y15990D01*
X13662Y15948D01*
X13735Y15934D01*
X13906D01*
Y16126D01*
X13981D01*
Y16201D01*
X14404D01*
X14363Y16262D01*
X14341Y16277D01*
X14372Y16322D01*
X14384Y16382D01*
X14372Y16442D01*
X14338Y16493D01*
Y16527D01*
X14372Y16578D01*
X14384Y16638D01*
X14372Y16698D01*
X14338Y16749D01*
Y16783D01*
X14372Y16834D01*
X14384Y16894D01*
X14372Y16954D01*
X14338Y17005D01*
X14287Y17039D01*
X14227Y17050D01*
X14149D01*
Y17344D01*
X14681Y17876D01*
X15466D01*
Y17050D01*
X15389D01*
X15329Y17039D01*
X15278Y17005D01*
X15244Y16954D01*
X15232Y16894D01*
X15244Y16834D01*
X15278Y16783D01*
Y16749D01*
X15244Y16698D01*
X15232Y16638D01*
X15244Y16578D01*
X15126Y16499D01*
X15082D01*
X15037Y16490D01*
X14999Y16465D01*
X12019Y13484D01*
X11926Y13523D01*
Y14040D01*
X11953D01*
X12013Y14051D01*
X12064Y14085D01*
X12098Y14136D01*
X12109Y14196D01*
X12098Y14256D01*
X12067Y14302D01*
X12089Y14316D01*
X12130Y14377D01*
X11284D01*
X11325Y14316D01*
X11346Y14302D01*
X11316Y14256D01*
X11304Y14196D01*
X11307Y14184D01*
X11304Y14170D01*
Y13957D01*
X11188Y13842D01*
X11063D01*
Y13842D01*
X11027D01*
X10992Y13877D01*
Y13877D01*
X10770D01*
Y13590D01*
Y13303D01*
X10992D01*
Y13338D01*
X11063D01*
Y13338D01*
X11134Y13338D01*
Y13192D01*
X11072Y13184D01*
X10971Y13142D01*
X10971Y13142D01*
X10965Y13141D01*
X10964Y13141D01*
X10963Y13141D01*
X10953Y13134D01*
X10943Y13127D01*
X10919Y13103D01*
X10884Y13076D01*
X10857Y13041D01*
X10783Y12967D01*
X10769Y12945D01*
X10764Y12920D01*
Y12798D01*
X10761Y12780D01*
X10764Y12762D01*
Y12620D01*
X10769Y12595D01*
X10783Y12573D01*
X10943Y12413D01*
X10965Y12399D01*
X10990Y12394D01*
X11028D01*
X11072Y12376D01*
X11180Y12361D01*
X11288Y12376D01*
X11389Y12418D01*
X11476Y12484D01*
X11543Y12571D01*
X11556Y12604D01*
X11652Y12633D01*
X11678Y12616D01*
Y12303D01*
X12182D01*
Y12558D01*
X12325D01*
X12370Y12567D01*
X12408Y12592D01*
X12573Y12757D01*
X12598Y12795D01*
X12598Y12795D01*
X12598Y12795D01*
X12607Y12840D01*
Y13291D01*
X12724Y13408D01*
X12816Y13370D01*
Y12827D01*
X12758D01*
Y12303D01*
X13262D01*
Y12827D01*
X13204D01*
Y13320D01*
X13505Y13621D01*
X13597Y13583D01*
Y13583D01*
X13597D01*
Y13060D01*
X14075D01*
Y13587D01*
X13602D01*
X13576Y13648D01*
X13563Y13679D01*
X13690Y13806D01*
X16716D01*
Y12523D01*
X14760Y10567D01*
X14668Y10605D01*
Y11682D01*
X13632D01*
Y10799D01*
X13549Y10716D01*
X13518Y10670D01*
X13507Y10615D01*
X13507Y10615D01*
Y10187D01*
X13187Y9867D01*
X13156Y9821D01*
X13156Y9821D01*
D01*
D01*
D01*
Y9821D01*
X13144Y9766D01*
X13107Y9791D01*
Y9372D01*
Y8953D01*
X13154Y8985D01*
X13154Y8985D01*
Y8985D01*
X13192Y9010D01*
Y9010D01*
D01*
X13236Y8980D01*
X13288Y8970D01*
X13340Y8980D01*
X13397Y8895D01*
X13350Y8807D01*
X11259D01*
X10383Y9683D01*
X10345Y9708D01*
X10300Y9717D01*
X9986D01*
X9957Y9813D01*
X10005Y9845D01*
X10053Y9916D01*
X10069Y10000D01*
X10053Y10084D01*
X10005Y10155D01*
X9934Y10203D01*
X9850Y10219D01*
X9766Y10203D01*
X9695Y10155D01*
X9670Y10117D01*
X7599D01*
X7238Y10477D01*
X7247Y10498D01*
X7247D01*
X7247Y10498D01*
Y11002D01*
X6987D01*
X6937Y11052D01*
X6882Y11089D01*
X6818Y11101D01*
X6433D01*
Y11116D01*
X6067D01*
Y11101D01*
X5113D01*
X5103Y11115D01*
X4985Y11206D01*
X4848Y11263D01*
X4700Y11282D01*
X4552Y11263D01*
X4415Y11206D01*
X4297Y11115D01*
X4206Y10997D01*
X4150Y10860D01*
X4130Y10712D01*
X4150Y10565D01*
X4206Y10427D01*
X4297Y10309D01*
X4415Y10219D01*
X4552Y10162D01*
X4700Y10142D01*
X4848Y10162D01*
X4985Y10219D01*
X5103Y10309D01*
X5194Y10427D01*
X5250Y10565D01*
X5270Y10712D01*
X5316Y10765D01*
X6067D01*
Y10750D01*
X6433D01*
Y10765D01*
X6723D01*
Y10498D01*
X6886D01*
X7405Y9979D01*
X7367Y9887D01*
X7338D01*
Y9675D01*
X7635D01*
Y9600D01*
X7710D01*
Y9313D01*
X7932D01*
Y9348D01*
X8003D01*
Y9348D01*
X8527D01*
Y9473D01*
X8761D01*
X8805Y9429D01*
Y9200D01*
X8570D01*
Y9075D01*
X9530D01*
Y9200D01*
X9295D01*
Y9429D01*
X9349Y9483D01*
X10251D01*
X11125Y8610D01*
X11118Y8593D01*
X11067Y8517D01*
X9730D01*
X9685Y8508D01*
X9684Y8507D01*
X9359D01*
X9295Y8571D01*
Y8800D01*
X9530D01*
Y8925D01*
X8570D01*
Y8800D01*
X8805D01*
Y8571D01*
X8751Y8517D01*
X8527D01*
Y8702D01*
X8003D01*
Y8198D01*
X8527D01*
Y8283D01*
X8800D01*
X8845Y8292D01*
X8883Y8317D01*
X8883Y8317D01*
X8883Y8317D01*
X9001Y8435D01*
X9099D01*
X9227Y8307D01*
X9265Y8282D01*
X9265Y8282D01*
X9265Y8282D01*
D01*
X9265Y8282D01*
X9265Y8282D01*
X9310Y8273D01*
X9720D01*
X9765Y8282D01*
X9766Y8283D01*
X11057D01*
X11105Y8195D01*
X11097Y8184D01*
X11081Y8100D01*
X11097Y8016D01*
X11138Y7955D01*
X11091Y7867D01*
X10740D01*
X10715Y7905D01*
X10644Y7953D01*
X10560Y7969D01*
X10476Y7953D01*
X10405Y7905D01*
X10357Y7834D01*
X10341Y7750D01*
X10357Y7666D01*
X10405Y7595D01*
X10476Y7547D01*
X10560Y7531D01*
X10644Y7547D01*
X10715Y7595D01*
X10740Y7633D01*
X12798D01*
X12845Y7545D01*
X12829Y7520D01*
Y7520D01*
Y7520D01*
D01*
X12776Y7530D01*
X12724Y7520D01*
X12680Y7490D01*
X12618Y7489D01*
X12617Y7490D01*
X12617D01*
X12617Y7490D01*
Y7490D01*
X12573Y7520D01*
X12520Y7530D01*
X12468Y7520D01*
X12424Y7490D01*
X12362Y7489D01*
X12361Y7490D01*
X12361D01*
X12361Y7490D01*
Y7490D01*
X12317Y7520D01*
X12265Y7530D01*
X12212Y7520D01*
X12168Y7490D01*
X12106Y7489D01*
X12105Y7490D01*
X12105D01*
X12105Y7490D01*
Y7490D01*
X12061Y7520D01*
X12009Y7530D01*
X11956Y7520D01*
X11912Y7490D01*
X11883Y7446D01*
X11872Y7394D01*
Y7255D01*
X9993D01*
X9948Y7246D01*
X9910Y7221D01*
X9739Y7050D01*
X9641D01*
X9523Y7168D01*
X9485Y7193D01*
X9440Y7202D01*
X9177D01*
Y7352D01*
X8653D01*
Y6848D01*
X9177D01*
Y6968D01*
X9391D01*
X9445Y6914D01*
Y6685D01*
X9210D01*
Y6560D01*
X10170D01*
Y6685D01*
X9935D01*
Y6914D01*
X10041Y7021D01*
X11872D01*
Y6862D01*
X11883Y6810D01*
X11912Y6766D01*
X11956Y6736D01*
X12009Y6726D01*
X12061Y6736D01*
X12061Y6736D01*
X12061D01*
X12061D01*
Y6736D01*
Y6736D01*
X12147Y6738D01*
Y6641D01*
X11509Y6002D01*
X9989D01*
X9935Y6056D01*
Y6285D01*
X10170D01*
Y6410D01*
X9210D01*
Y6285D01*
X9445D01*
Y6056D01*
X9391Y6002D01*
X9177D01*
Y6152D01*
X8653D01*
Y5648D01*
X9177D01*
Y5768D01*
X9440D01*
X9485Y5777D01*
X9523Y5802D01*
X9641Y5920D01*
X9739D01*
X9857Y5802D01*
X9895Y5777D01*
X9895Y5777D01*
X9895Y5777D01*
D01*
X9895Y5777D01*
X9895Y5777D01*
X9940Y5768D01*
X11542D01*
X11555Y5765D01*
X11599Y5774D01*
X11637Y5800D01*
X12311Y6473D01*
X12403Y6435D01*
Y6169D01*
X10411Y4177D01*
X9120D01*
X9075Y4168D01*
X9037Y4143D01*
X8919Y4025D01*
X8821D01*
X8563Y4283D01*
X8525Y4308D01*
X8480Y4317D01*
X8387D01*
Y4452D01*
X7863D01*
Y3948D01*
X8159D01*
X8185Y3943D01*
X8211Y3948D01*
X8387D01*
Y3997D01*
X8479Y4035D01*
X8625Y3889D01*
Y3660D01*
X8390D01*
Y3535D01*
X9350D01*
Y3660D01*
X9115D01*
Y3889D01*
X9169Y3943D01*
X10460D01*
X10505Y3952D01*
X10543Y3977D01*
X10543Y3977D01*
X10543Y3977D01*
X12567Y6001D01*
X12659Y5963D01*
Y5526D01*
X12652Y5515D01*
X12643Y5470D01*
Y5259D01*
X10361Y2977D01*
X9169D01*
X9115Y3031D01*
Y3260D01*
X9350D01*
Y3385D01*
X8390D01*
Y3260D01*
X8625D01*
Y3031D01*
X8539Y2945D01*
X8447Y2983D01*
Y3012D01*
X7923D01*
Y2508D01*
X8447D01*
Y2643D01*
X8520D01*
X8565Y2652D01*
X8603Y2677D01*
X8821Y2895D01*
X8919D01*
X9037Y2777D01*
X9075Y2752D01*
X9120Y2743D01*
X10410D01*
X10455Y2752D01*
X10493Y2777D01*
X10493Y2777D01*
X10493Y2777D01*
X12843Y5127D01*
X12868Y5165D01*
X12877Y5210D01*
X12877Y5210D01*
X12877Y5210D01*
Y5210D01*
Y5430D01*
X12885Y5442D01*
X12894Y5486D01*
Y6607D01*
X12980Y6736D01*
X13032Y6726D01*
X13085Y6736D01*
X13129Y6766D01*
X13190Y6767D01*
X13192Y6766D01*
X13192D01*
X13192Y6766D01*
Y6766D01*
X13236Y6736D01*
X13288Y6726D01*
X13340Y6736D01*
X13367Y6754D01*
X13457Y6711D01*
X13466Y6618D01*
X13395Y6547D01*
X13381Y6525D01*
X13376Y6500D01*
Y6451D01*
X13368Y6449D01*
X13305Y6407D01*
X13085Y6187D01*
X13043Y6124D01*
X13028Y6050D01*
Y4662D01*
X12990Y4657D01*
X12913Y4625D01*
X12847Y4575D01*
X12797Y4509D01*
X12765Y4432D01*
X12754Y4350D01*
X12765Y4268D01*
X12797Y4191D01*
X12847Y4125D01*
X12913Y4075D01*
X12990Y4043D01*
X13072Y4032D01*
X13154Y4043D01*
X13231Y4075D01*
X13297Y4125D01*
X13347Y4191D01*
X13379Y4268D01*
X13390Y4350D01*
X13383Y4399D01*
X13401Y4426D01*
X13416Y4500D01*
Y5368D01*
X13597D01*
Y5665D01*
X13747D01*
Y5368D01*
X13959D01*
Y5554D01*
X14051Y5593D01*
X14689Y4955D01*
X14660Y4859D01*
X14626Y4853D01*
X14555Y4805D01*
X14507Y4734D01*
X14491Y4650D01*
X14507Y4566D01*
X14555Y4495D01*
X14626Y4447D01*
X14710Y4431D01*
X14755Y4440D01*
X16401Y2793D01*
X16354Y2705D01*
X16285Y2719D01*
X16274Y2716D01*
X16260Y2719D01*
X16176Y2703D01*
X16105Y2655D01*
X16057Y2584D01*
X16041Y2500D01*
X16057Y2416D01*
X16105Y2345D01*
X16176Y2297D01*
X16254Y2282D01*
X16808Y1728D01*
Y1503D01*
X16808D01*
Y1467D01*
X16773Y1432D01*
X16773D01*
Y1210D01*
X17347D01*
Y1432D01*
X17312D01*
Y1503D01*
X17312D01*
X17312Y1556D01*
X18115D01*
X18150Y1563D01*
X18350D01*
Y117D01*
X117D01*
Y29883D01*
X29883D01*
Y15050D01*
D02*
G37*
%LPC*%
G36*
X6175Y10285D02*
X6032D01*
Y10142D01*
X6175D01*
Y10285D01*
D02*
G37*
G36*
X25009Y10355D02*
X24665D01*
Y10011D01*
X24701Y10016D01*
X24804Y10059D01*
X24893Y10127D01*
X24961Y10216D01*
X25004Y10319D01*
X25009Y10355D01*
D02*
G37*
G36*
X24515D02*
X24171D01*
X24176Y10319D01*
X24219Y10216D01*
X24287Y10127D01*
X24376Y10059D01*
X24479Y10016D01*
X24515Y10011D01*
Y10355D01*
D02*
G37*
G36*
X6468Y10285D02*
X6325D01*
Y10142D01*
X6468D01*
Y10285D01*
D02*
G37*
G36*
X24515Y10849D02*
X24479Y10844D01*
X24376Y10801D01*
X24287Y10733D01*
X24219Y10644D01*
X24176Y10541D01*
X24171Y10505D01*
X24515D01*
Y10849D01*
D02*
G37*
G36*
X17347Y1060D02*
X17135D01*
Y838D01*
X17347D01*
Y1060D01*
D02*
G37*
G36*
X16257Y10442D02*
X16045D01*
Y10220D01*
X16257D01*
Y10442D01*
D02*
G37*
G36*
X20935Y1060D02*
X20723D01*
Y838D01*
X20935D01*
Y1060D01*
D02*
G37*
G36*
X6175Y9992D02*
X6032D01*
Y9849D01*
X6175D01*
Y9992D01*
D02*
G37*
G36*
X4720Y3310D02*
X4572Y3290D01*
X4435Y3234D01*
X4317Y3143D01*
X4226Y3025D01*
X4170Y2887D01*
X4150Y2740D01*
X4170Y2592D01*
X4226Y2455D01*
X4317Y2337D01*
X4435Y2246D01*
X4572Y2190D01*
X4720Y2170D01*
X4868Y2190D01*
X5005Y2246D01*
X5034Y2268D01*
X5048Y2259D01*
X5093Y2250D01*
X6067D01*
Y2184D01*
X6433D01*
Y2250D01*
X7162D01*
X7207Y2259D01*
X7245Y2284D01*
X7245Y2284D01*
X7245Y2284D01*
X7469Y2508D01*
X7817D01*
Y3012D01*
X7293D01*
Y2664D01*
X7113Y2484D01*
X6433D01*
Y2550D01*
X6067D01*
Y2484D01*
X5316D01*
X5260Y2567D01*
X5270Y2592D01*
X5290Y2740D01*
X5270Y2887D01*
X5214Y3025D01*
X5123Y3143D01*
X5005Y3234D01*
X4868Y3290D01*
X4720Y3310D01*
D02*
G37*
G36*
X5265Y12655D02*
X4135D01*
Y11525D01*
X5265D01*
Y11922D01*
X5957D01*
X6067Y11812D01*
Y11684D01*
X6433D01*
Y11699D01*
X6723D01*
Y11598D01*
X7247D01*
Y12102D01*
X7198D01*
X7160Y12194D01*
X7249Y12283D01*
X7570D01*
X7595Y12245D01*
X7666Y12198D01*
X7637Y12102D01*
X7353D01*
Y11598D01*
X7877D01*
Y11783D01*
X8101D01*
X8155Y11729D01*
Y11500D01*
X7920D01*
Y11375D01*
X8880D01*
Y11500D01*
X8645D01*
Y11729D01*
X8699Y11783D01*
X10041D01*
X11931Y9894D01*
X11954Y9774D01*
X11953Y9762D01*
X11912Y9734D01*
X11883Y9690D01*
X11872Y9638D01*
Y9489D01*
X11757D01*
X10413Y10833D01*
X10375Y10858D01*
X10330Y10867D01*
X8699D01*
X8645Y10921D01*
Y11100D01*
X8880D01*
Y11225D01*
X7920D01*
Y11100D01*
X8155D01*
Y10921D01*
X8101Y10867D01*
X7877D01*
Y11002D01*
X7353D01*
Y10498D01*
X7877D01*
Y10633D01*
X8150D01*
X8195Y10642D01*
X8233Y10667D01*
X8233Y10667D01*
X8233Y10667D01*
X8301Y10735D01*
X8499D01*
X8567Y10667D01*
X8605Y10642D01*
X8650Y10633D01*
X10281D01*
X11625Y9289D01*
X11663Y9264D01*
X11708Y9255D01*
X11872D01*
Y9106D01*
X11883Y9054D01*
X11912Y9010D01*
X11956Y8980D01*
X12009Y8970D01*
X12061Y8980D01*
X12105Y9010D01*
X12167Y9011D01*
X12168Y9010D01*
X12168D01*
X12168Y9010D01*
Y9010D01*
X12212Y8980D01*
X12265Y8970D01*
X12317Y8980D01*
X12361Y9010D01*
X12423Y9011D01*
X12424Y9010D01*
X12424D01*
X12424Y9010D01*
Y9010D01*
X12468Y8980D01*
X12520Y8970D01*
X12573Y8980D01*
X12617Y9010D01*
X12679Y9011D01*
X12680Y9010D01*
X12680D01*
X12680Y9010D01*
Y9010D01*
X12724Y8980D01*
X12776Y8970D01*
X12829Y8980D01*
X12873Y9010D01*
X12894Y9010D01*
X12911Y8985D01*
X12957Y8953D01*
Y9372D01*
Y9811D01*
X12894Y9906D01*
Y10138D01*
X13193Y10437D01*
X13218Y10475D01*
X13227Y10520D01*
X13227Y10520D01*
X13227Y10520D01*
Y10520D01*
Y10905D01*
X13218Y10950D01*
X13193Y10988D01*
X12995Y11186D01*
Y11304D01*
X13133Y11442D01*
X13158Y11480D01*
X13167Y11525D01*
X13167Y11525D01*
X13167Y11525D01*
Y11525D01*
Y11673D01*
X13262D01*
Y12197D01*
X12758D01*
Y11673D01*
X12933D01*
Y11574D01*
X12722Y11363D01*
X12630Y11402D01*
Y11590D01*
X12505D01*
Y11110D01*
Y10630D01*
X12630D01*
Y10865D01*
X12984D01*
X12993Y10856D01*
Y10569D01*
X12693Y10269D01*
X12668Y10231D01*
X12659Y10186D01*
Y9934D01*
X12567Y9895D01*
X11827Y10635D01*
Y10836D01*
X11858Y10868D01*
X11865Y10865D01*
Y10865D01*
X11865Y10865D01*
X12230D01*
Y10630D01*
X12355D01*
Y11110D01*
Y11590D01*
X12230D01*
Y11355D01*
X12126D01*
X11937Y11544D01*
Y11673D01*
X12182D01*
Y12197D01*
X11678D01*
Y11673D01*
X11703D01*
Y11495D01*
X11712Y11450D01*
X11737Y11412D01*
X11865Y11284D01*
Y11206D01*
X11627Y10968D01*
X11602Y10930D01*
X11593Y10885D01*
X11594Y10880D01*
X11593Y10875D01*
Y10694D01*
X11500Y10655D01*
X10173Y11983D01*
X10135Y12008D01*
X10090Y12017D01*
X8650D01*
X8605Y12008D01*
X8567Y11983D01*
X8449Y11865D01*
X8351D01*
X8233Y11983D01*
X8195Y12008D01*
X8150Y12017D01*
X7877D01*
Y12102D01*
X7863D01*
X7834Y12198D01*
X7905Y12245D01*
X7953Y12316D01*
X7969Y12400D01*
X7953Y12484D01*
X7905Y12555D01*
X7834Y12603D01*
X7750Y12619D01*
X7666Y12603D01*
X7595Y12555D01*
X7570Y12517D01*
X7200D01*
X7155Y12508D01*
X7117Y12483D01*
X6902Y12268D01*
X6877Y12230D01*
X6868Y12185D01*
Y12102D01*
X6723D01*
Y12035D01*
X6433D01*
Y12050D01*
X6305D01*
X6146Y12209D01*
X6091Y12245D01*
X6027Y12258D01*
X5265D01*
Y12655D01*
D02*
G37*
G36*
X25005Y1365D02*
X24655D01*
Y1015D01*
X25005D01*
Y1365D01*
D02*
G37*
G36*
X21297Y1060D02*
X21085D01*
Y838D01*
X21297D01*
Y1060D01*
D02*
G37*
G36*
X24505Y1365D02*
X24155D01*
Y1015D01*
X24505D01*
Y1365D01*
D02*
G37*
G36*
X6468Y9992D02*
X6325D01*
Y9849D01*
X6468D01*
Y9992D01*
D02*
G37*
G36*
X10620Y13515D02*
X10398D01*
Y13303D01*
X10620D01*
Y13515D01*
D02*
G37*
G36*
X14703Y13587D02*
X14225D01*
Y13060D01*
X14703D01*
Y13587D01*
D02*
G37*
G36*
X6468Y12951D02*
X6325D01*
Y12808D01*
X6468D01*
Y12951D01*
D02*
G37*
G36*
X10620Y13877D02*
X10398D01*
Y13665D01*
X10620D01*
Y13877D01*
D02*
G37*
G36*
X24505Y865D02*
X24155D01*
Y515D01*
X24505D01*
Y865D01*
D02*
G37*
G36*
X7980Y15666D02*
X6920D01*
X6895Y15661D01*
X6873Y15647D01*
X6859Y15625D01*
X6854Y15600D01*
Y15524D01*
X6854D01*
Y14765D01*
X6854D01*
Y14121D01*
X6761Y14082D01*
X6287Y14557D01*
X6265Y14571D01*
X6240Y14576D01*
X5310D01*
Y14660D01*
X5310D01*
Y15185D01*
X4110D01*
Y14660D01*
X4323D01*
X4361Y14603D01*
X4374Y14565D01*
X4372Y14564D01*
X4362Y14557D01*
X4362Y14556D01*
X4361Y14556D01*
X4032Y14214D01*
X4026Y14204D01*
X4019Y14193D01*
X4019Y14193D01*
X4018Y14192D01*
X4016Y14180D01*
X4014Y14168D01*
Y13533D01*
X4015Y13528D01*
X4014Y13523D01*
X4017Y13515D01*
X4019Y13507D01*
X4021Y13503D01*
X4023Y13499D01*
X4029Y13493D01*
X4033Y13486D01*
X4037Y13483D01*
X4040Y13479D01*
X4470Y13157D01*
X4478Y13153D01*
X4485Y13149D01*
X4489Y13148D01*
X4494Y13146D01*
X4502Y13145D01*
X4510Y13144D01*
X7260D01*
X7285Y13149D01*
X7307Y13163D01*
X7497Y13353D01*
X7511Y13375D01*
X7516Y13400D01*
Y13482D01*
X7823D01*
Y13348D01*
X8347D01*
Y13852D01*
X7823D01*
Y13818D01*
X7475D01*
X7377Y13917D01*
X7470Y14056D01*
X8027Y14613D01*
X8041Y14635D01*
X8046Y14660D01*
Y14765D01*
X8047D01*
Y15524D01*
X8046D01*
Y15600D01*
X8041Y15625D01*
X8027Y15647D01*
X8005Y15661D01*
X7980Y15666D01*
D02*
G37*
G36*
X9107Y16005D02*
X8533D01*
Y15783D01*
X8568D01*
Y15712D01*
X8568D01*
Y15188D01*
X8568D01*
Y15123D01*
X8535Y15090D01*
X8535D01*
Y14725D01*
X8300D01*
Y14600D01*
X8780D01*
Y14450D01*
X8300D01*
Y14325D01*
X8535D01*
Y13960D01*
X8612D01*
Y13852D01*
X8453D01*
Y13348D01*
X8977D01*
Y13525D01*
X9000Y13561D01*
X9013Y13625D01*
X9000Y13689D01*
X8977Y13725D01*
Y13852D01*
X8948D01*
Y13960D01*
X9025D01*
Y14057D01*
X9739D01*
X9747Y14051D01*
X9807Y14040D01*
X10299D01*
X10359Y14051D01*
X10410Y14085D01*
X10444Y14136D01*
X10456Y14196D01*
X10444Y14256D01*
X10410Y14307D01*
Y14341D01*
X10444Y14392D01*
X10456Y14452D01*
X10444Y14512D01*
X10410Y14563D01*
Y14597D01*
X10444Y14648D01*
X10456Y14708D01*
X10444Y14768D01*
X10410Y14819D01*
Y14853D01*
X10444Y14904D01*
X10456Y14964D01*
X10444Y15024D01*
X10410Y15075D01*
X10359Y15109D01*
X10299Y15120D01*
X9807D01*
X9768Y15113D01*
X9072D01*
Y15188D01*
X9072D01*
Y15712D01*
X9072D01*
Y15748D01*
X9107Y15783D01*
X9107D01*
Y16005D01*
D02*
G37*
G36*
X6175Y12951D02*
X6032D01*
Y12808D01*
X6175D01*
Y12951D01*
D02*
G37*
G36*
X14703Y12910D02*
X14225D01*
Y12383D01*
X14703D01*
Y12910D01*
D02*
G37*
G36*
X14075D02*
X13597D01*
Y12383D01*
X14075D01*
Y12910D01*
D02*
G37*
G36*
X24665Y10849D02*
Y10505D01*
X25009D01*
X25004Y10541D01*
X24961Y10644D01*
X24893Y10733D01*
X24804Y10801D01*
X24701Y10844D01*
X24665Y10849D01*
D02*
G37*
G36*
X16985Y1060D02*
X16773D01*
Y838D01*
X16985D01*
Y1060D01*
D02*
G37*
G36*
X6468Y12658D02*
X6325D01*
Y12515D01*
X6468D01*
Y12658D01*
D02*
G37*
G36*
X6175D02*
X6032D01*
Y12515D01*
X6175D01*
Y12658D01*
D02*
G37*
G36*
X25005Y865D02*
X24655D01*
Y515D01*
X25005D01*
Y865D01*
D02*
G37*
G36*
X6175Y6658D02*
X6032D01*
Y6515D01*
X6175D01*
Y6658D01*
D02*
G37*
G36*
X18040Y3472D02*
X17800D01*
X17715Y3455D01*
X17643Y3407D01*
X17595Y3335D01*
X17593Y3325D01*
X18040D01*
Y3472D01*
D02*
G37*
G36*
X4710Y6590D02*
X4563Y6570D01*
X4425Y6514D01*
X4307Y6423D01*
X4216Y6305D01*
X4160Y6168D01*
X4140Y6020D01*
X4160Y5872D01*
X4216Y5735D01*
X4307Y5617D01*
X4425Y5526D01*
X4563Y5470D01*
X4710Y5450D01*
X4857Y5470D01*
X4995Y5526D01*
X5113Y5617D01*
X5204Y5735D01*
X5210Y5750D01*
X6067D01*
Y5684D01*
X6433D01*
Y5750D01*
X6532D01*
X6577Y5759D01*
X6615Y5784D01*
X6854Y6023D01*
X7202D01*
Y6168D01*
X7348D01*
Y6023D01*
X7696D01*
X7902Y5817D01*
X7940Y5792D01*
X7985Y5783D01*
X8023D01*
Y5648D01*
X8547D01*
Y6152D01*
X8023D01*
X8023Y6152D01*
Y6152D01*
X7935Y6116D01*
X7852Y6199D01*
Y6547D01*
X7348D01*
Y6402D01*
X7202D01*
Y6547D01*
X6698D01*
Y6199D01*
X6549Y6050D01*
X6433Y6050D01*
Y6050D01*
X6067D01*
Y5984D01*
X5311D01*
X5280Y6020D01*
X5260Y6168D01*
X5204Y6305D01*
X5113Y6423D01*
X4995Y6514D01*
X4857Y6570D01*
X4710Y6590D01*
D02*
G37*
G36*
X6468Y6658D02*
X6325D01*
Y6515D01*
X6468D01*
Y6658D01*
D02*
G37*
G36*
X28712Y8187D02*
X28490D01*
Y7975D01*
X28712D01*
Y8187D01*
D02*
G37*
G36*
X6468Y6951D02*
X6325D01*
Y6808D01*
X6468D01*
Y6951D01*
D02*
G37*
G36*
X6175D02*
X6032D01*
Y6808D01*
X6175D01*
Y6951D01*
D02*
G37*
G36*
X24999Y4865D02*
X24655D01*
Y4521D01*
X24691Y4526D01*
X24794Y4569D01*
X24883Y4637D01*
X24951Y4726D01*
X24994Y4829D01*
X24999Y4865D01*
D02*
G37*
G36*
X6468Y3985D02*
X6325D01*
Y3842D01*
X6468D01*
Y3985D01*
D02*
G37*
G36*
X6175D02*
X6032D01*
Y3842D01*
X6175D01*
Y3985D01*
D02*
G37*
G36*
X6468Y3692D02*
X6032D01*
Y3549D01*
X6032Y3549D01*
X6032Y3451D01*
X6032D01*
Y3308D01*
X6468D01*
Y3451D01*
D01*
Y3451D01*
X6468Y3451D01*
Y3549D01*
X6468D01*
Y3692D01*
D02*
G37*
G36*
X6433Y4816D02*
X6067D01*
Y4750D01*
X5233D01*
X5188Y4741D01*
X5150Y4716D01*
X5119Y4685D01*
X4155D01*
Y3555D01*
X5285D01*
Y4516D01*
X6067D01*
Y4450D01*
X6433D01*
Y4516D01*
X7013D01*
X7233Y4296D01*
Y3948D01*
X7757D01*
Y4452D01*
X7409D01*
X7145Y4716D01*
X7107Y4741D01*
X7062Y4750D01*
X6433D01*
Y4816D01*
D02*
G37*
G36*
X24505Y4865D02*
X24161D01*
X24166Y4829D01*
X24209Y4726D01*
X24277Y4637D01*
X24366Y4569D01*
X24469Y4526D01*
X24505Y4521D01*
Y4865D01*
D02*
G37*
G36*
X20320Y3472D02*
X20080D01*
Y3325D01*
X20527D01*
X20525Y3335D01*
X20477Y3407D01*
X20405Y3455D01*
X20320Y3472D01*
D02*
G37*
G36*
X24580Y4333D02*
X24478Y4320D01*
X24383Y4280D01*
X24302Y4218D01*
X24240Y4137D01*
X24200Y4042D01*
X24187Y3940D01*
X24200Y3838D01*
X24240Y3743D01*
X24302Y3662D01*
X24383Y3600D01*
X24478Y3560D01*
X24580Y3547D01*
X24682Y3560D01*
X24777Y3600D01*
X24858Y3662D01*
X24920Y3743D01*
X24960Y3838D01*
X24973Y3940D01*
X24960Y4042D01*
X24920Y4137D01*
X24858Y4218D01*
X24777Y4280D01*
X24682Y4320D01*
X24580Y4333D01*
D02*
G37*
G36*
X6175Y9308D02*
X6032D01*
Y9165D01*
X6175D01*
Y9308D01*
D02*
G37*
G36*
X7237Y9362D02*
X7025D01*
Y9140D01*
X7237D01*
Y9362D01*
D02*
G37*
G36*
X6875D02*
X6663D01*
Y9140D01*
X6875D01*
Y9362D01*
D02*
G37*
G36*
X6468Y9308D02*
X6325D01*
Y9165D01*
X6468D01*
Y9308D01*
D02*
G37*
G36*
Y9601D02*
X6325D01*
Y9458D01*
X6468D01*
Y9601D01*
D02*
G37*
G36*
X6175D02*
X6032D01*
Y9458D01*
X6175D01*
Y9601D01*
D02*
G37*
G36*
X7560Y9525D02*
X7338D01*
Y9313D01*
X7560D01*
Y9525D01*
D02*
G37*
G36*
X6175Y3158D02*
X6032D01*
Y3015D01*
X6175D01*
Y3158D01*
D02*
G37*
G36*
X6468D02*
X6325D01*
Y3015D01*
X6468D01*
Y3158D01*
D02*
G37*
G36*
X4700Y9904D02*
X4552Y9885D01*
X4415Y9828D01*
X4297Y9737D01*
X4206Y9619D01*
X4150Y9482D01*
X4130Y9334D01*
X4150Y9187D01*
X4206Y9049D01*
X4297Y8931D01*
X4415Y8841D01*
X4552Y8784D01*
X4700Y8764D01*
X4848Y8784D01*
X4985Y8841D01*
X5103Y8931D01*
X5134Y8972D01*
X5234Y8978D01*
X5814Y8398D01*
X5814Y8398D01*
X5869Y8361D01*
X5933Y8349D01*
X6067D01*
Y8334D01*
X6433D01*
Y8349D01*
X6698D01*
Y8173D01*
X6782D01*
Y7902D01*
X6673D01*
Y7523D01*
X6581Y7485D01*
X6333Y7733D01*
X6295Y7758D01*
X6250Y7767D01*
X5275D01*
Y7965D01*
X4145D01*
Y6835D01*
X5275D01*
Y7533D01*
X6201D01*
X6698Y7036D01*
Y6653D01*
X7202D01*
Y6798D01*
X7348D01*
Y6653D01*
X7852D01*
Y6983D01*
X8023D01*
Y6848D01*
X8547D01*
Y7352D01*
X8023D01*
Y7217D01*
X7785D01*
D01*
D01*
X7785Y7217D01*
X7785Y7217D01*
X7717Y7221D01*
Y7398D01*
X7827D01*
Y7902D01*
X7303D01*
Y7398D01*
X7483D01*
Y7177D01*
X7348D01*
Y7032D01*
X7202D01*
Y7177D01*
X6889D01*
X6760Y7306D01*
X6798Y7398D01*
X7197D01*
Y7902D01*
X7118D01*
Y8173D01*
X7202D01*
Y8242D01*
X7373D01*
Y8198D01*
X7897D01*
Y8702D01*
X7373D01*
Y8578D01*
X7202D01*
Y8697D01*
X7202D01*
Y8733D01*
X7237Y8768D01*
X7237D01*
Y8990D01*
X6663D01*
Y8768D01*
X6663D01*
Y8756D01*
X6592Y8685D01*
X6433D01*
Y8700D01*
X6067D01*
Y8685D01*
X6003D01*
X5257Y9431D01*
X5250Y9482D01*
X5194Y9619D01*
X5103Y9737D01*
X4985Y9828D01*
X4848Y9885D01*
X4700Y9904D01*
D02*
G37*
G36*
X24590Y9823D02*
X24488Y9810D01*
X24393Y9770D01*
X24312Y9708D01*
X24250Y9627D01*
X24210Y9532D01*
X24197Y9430D01*
X24210Y9328D01*
X24250Y9233D01*
X24312Y9152D01*
X24322Y9144D01*
X24329Y9044D01*
X23051Y7767D01*
X22961Y7811D01*
X22968Y7860D01*
X22957Y7942D01*
X22925Y8019D01*
X22875Y8085D01*
X22809Y8135D01*
X22732Y8167D01*
X22650Y8178D01*
X22568Y8167D01*
X22491Y8135D01*
X22425Y8085D01*
X22402Y8054D01*
X22107D01*
X22078Y8149D01*
X22143Y8193D01*
X22191Y8265D01*
X22193Y8275D01*
X21109D01*
X21111Y8265D01*
X21159Y8193D01*
X21232Y8145D01*
X21294Y8132D01*
Y8032D01*
X21245Y8022D01*
X21185Y7982D01*
X21144Y7921D01*
X21130Y7850D01*
X21144Y7779D01*
X21185Y7718D01*
X21245Y7678D01*
X21317Y7663D01*
X21986D01*
X22001Y7666D01*
X22402D01*
X22425Y7635D01*
X22491Y7585D01*
X22514Y7575D01*
X22495Y7477D01*
X22121D01*
X22118Y7482D01*
X22057Y7522D01*
X21986Y7537D01*
X21317D01*
X21245Y7522D01*
X21185Y7482D01*
X21144Y7421D01*
X21130Y7350D01*
X21144Y7279D01*
X21185Y7218D01*
X21245Y7178D01*
X21317Y7163D01*
X21986D01*
X22057Y7178D01*
X22118Y7218D01*
X22135Y7243D01*
X22810D01*
X22855Y7252D01*
X22893Y7277D01*
X24110Y8494D01*
X24199Y8450D01*
X24197Y8430D01*
X24210Y8328D01*
X24250Y8233D01*
X24253Y8229D01*
X22785Y6761D01*
X22703Y6816D01*
X22719Y6900D01*
X22703Y6984D01*
X22655Y7055D01*
X22584Y7103D01*
X22500Y7119D01*
X22416Y7103D01*
X22345Y7055D01*
X22297Y6984D01*
X22294Y6967D01*
X22128D01*
X22118Y6982D01*
X22057Y7022D01*
X21986Y7037D01*
X21317D01*
X21245Y7022D01*
X21185Y6982D01*
X21144Y6921D01*
X21130Y6850D01*
X21144Y6779D01*
X21185Y6718D01*
X21245Y6678D01*
X21317Y6663D01*
X21986D01*
X22057Y6678D01*
X22118Y6718D01*
X22128Y6733D01*
X22363D01*
X22416Y6697D01*
X22500Y6681D01*
X22584Y6697D01*
X22639Y6615D01*
X22526Y6502D01*
X22088D01*
X22057Y6522D01*
X21986Y6537D01*
X21671D01*
X21661Y6543D01*
X21616Y6552D01*
X21571Y6543D01*
X21562Y6537D01*
X21317D01*
X21245Y6522D01*
X21185Y6482D01*
X21144Y6421D01*
X21130Y6350D01*
X21144Y6279D01*
X21185Y6218D01*
X21245Y6178D01*
X21317Y6163D01*
X21986D01*
X22057Y6178D01*
X22118Y6218D01*
X22151Y6268D01*
X22575D01*
X22620Y6277D01*
X22658Y6302D01*
X22658Y6302D01*
X22658Y6302D01*
X24430Y8074D01*
X24488Y8050D01*
X24590Y8037D01*
X24692Y8050D01*
X24787Y8090D01*
X24868Y8152D01*
X24930Y8233D01*
X24951Y8283D01*
X28080D01*
X28125Y8292D01*
X28156Y8313D01*
X28998D01*
X28999Y8306D01*
X29052Y8227D01*
X29059Y8222D01*
X29063Y8122D01*
X29029Y8096D01*
X28985Y8039D01*
X28958Y7975D01*
X29742D01*
X29715Y8039D01*
X29671Y8096D01*
X29637Y8122D01*
X29641Y8222D01*
X29648Y8227D01*
X29701Y8306D01*
X29720Y8400D01*
X29701Y8494D01*
X29648Y8573D01*
X29608Y8600D01*
Y8700D01*
X29648Y8727D01*
X29701Y8806D01*
X29720Y8900D01*
X29701Y8994D01*
X29648Y9073D01*
X29569Y9126D01*
X29475Y9145D01*
X29225D01*
X29131Y9126D01*
X29052Y9073D01*
X29015Y9017D01*
X28849D01*
X28353Y9513D01*
X28315Y9538D01*
X28270Y9547D01*
X24963D01*
X24930Y9627D01*
X24868Y9708D01*
X24787Y9770D01*
X24692Y9810D01*
X24590Y9823D01*
D02*
G37*
G36*
X17994Y8572D02*
X17734D01*
X17649Y8555D01*
X17577Y8507D01*
X17529Y8435D01*
X17527Y8425D01*
X17994D01*
Y8572D01*
D02*
G37*
G36*
X21986D02*
X21726D01*
Y8425D01*
X22193D01*
X22191Y8435D01*
X22143Y8507D01*
X22071Y8555D01*
X21986Y8572D01*
D02*
G37*
G36*
X21576D02*
X21317D01*
X21232Y8555D01*
X21159Y8507D01*
X21111Y8435D01*
X21109Y8425D01*
X21576D01*
Y8572D01*
D02*
G37*
G36*
X18403D02*
X18144D01*
Y8425D01*
X18611D01*
X18609Y8435D01*
X18561Y8507D01*
X18488Y8555D01*
X18403Y8572D01*
D02*
G37*
G36*
X7315Y23425D02*
X6865D01*
Y22860D01*
X7315D01*
Y23425D01*
D02*
G37*
G36*
X14597Y23110D02*
X14385D01*
Y22888D01*
X14597D01*
Y23110D01*
D02*
G37*
G36*
X6055Y23425D02*
X5605D01*
Y22860D01*
X6055D01*
Y23425D01*
D02*
G37*
G36*
X6715D02*
X6265D01*
Y22860D01*
X6715D01*
Y23425D01*
D02*
G37*
G36*
X6055Y24140D02*
X5605D01*
Y23575D01*
X6055D01*
Y24140D01*
D02*
G37*
G36*
X6715D02*
X6265D01*
Y23575D01*
X6715D01*
Y24140D01*
D02*
G37*
G36*
X13235Y23335D02*
X12679D01*
Y23054D01*
X13235D01*
Y23335D01*
D02*
G37*
G36*
X5455Y24140D02*
X5005D01*
Y23575D01*
X5455D01*
Y24140D01*
D02*
G37*
G36*
X6794Y22082D02*
X6267D01*
Y21575D01*
X6794D01*
Y22082D01*
D02*
G37*
G36*
X7471D02*
X6944D01*
Y21575D01*
X7471D01*
Y22082D01*
D02*
G37*
G36*
X5376D02*
X4849D01*
Y21575D01*
X5376D01*
Y22082D01*
D02*
G37*
G36*
X6053D02*
X5526D01*
Y21575D01*
X6053D01*
Y22082D01*
D02*
G37*
G36*
X13235Y22904D02*
X12679D01*
Y22623D01*
X13235D01*
Y22904D01*
D02*
G37*
G36*
X5455Y23425D02*
X5005D01*
Y22860D01*
X5455D01*
Y23425D01*
D02*
G37*
G36*
X14335Y22107D02*
X13857D01*
Y21580D01*
X14335D01*
Y22107D01*
D02*
G37*
G36*
X14963D02*
X14485D01*
Y21580D01*
X14963D01*
Y22107D01*
D02*
G37*
G36*
X8825Y27112D02*
X8613D01*
Y26890D01*
X8825D01*
Y27112D01*
D02*
G37*
G36*
X9187D02*
X8975D01*
Y26890D01*
X9187D01*
Y27112D01*
D02*
G37*
G36*
X2525D02*
X2313D01*
Y26890D01*
X2525D01*
Y27112D01*
D02*
G37*
G36*
X2887D02*
X2675D01*
Y26890D01*
X2887D01*
Y27112D01*
D02*
G37*
G36*
X9625Y27112D02*
X9413D01*
Y26890D01*
X9625D01*
Y27112D01*
D02*
G37*
G36*
X9987D02*
X9775D01*
Y26890D01*
X9987D01*
Y27112D01*
D02*
G37*
G36*
X3325D02*
X3113D01*
Y26890D01*
X3325D01*
Y27112D01*
D02*
G37*
G36*
X3687D02*
X3475D01*
Y26890D01*
X3687D01*
Y27112D01*
D02*
G37*
G36*
X18958Y24856D02*
X18835D01*
Y24752D01*
X18958D01*
Y24856D01*
D02*
G37*
G36*
X18099Y25200D02*
X17887D01*
Y24978D01*
X18099D01*
Y25200D01*
D02*
G37*
G36*
X7315Y24140D02*
X6865D01*
Y23575D01*
X7315D01*
Y24140D01*
D02*
G37*
G36*
X18685Y24856D02*
X18562D01*
Y24752D01*
X18685D01*
Y24856D01*
D02*
G37*
G36*
X16740Y25919D02*
X16518D01*
Y25707D01*
X16740D01*
Y25919D01*
D02*
G37*
G36*
X3687Y26740D02*
X3113D01*
Y26537D01*
X3113D01*
X3113Y26537D01*
X3113Y26518D01*
X3061Y26466D01*
X2939D01*
X2887Y26518D01*
X2887Y26537D01*
X2887Y26537D01*
X2887D01*
Y26740D01*
X2313D01*
Y26537D01*
X2313D01*
X2313Y26537D01*
X2313Y26518D01*
X2261Y26466D01*
X1800D01*
X1775Y26461D01*
X1753Y26447D01*
X1739Y26425D01*
X1734Y26400D01*
Y20400D01*
X1739Y20375D01*
X1753Y20353D01*
X4753Y17353D01*
X4775Y17339D01*
X4800Y17334D01*
X5853D01*
X5950Y17321D01*
X6819D01*
Y17031D01*
X8081D01*
Y17321D01*
X9841D01*
X9902Y17296D01*
X10010Y17281D01*
X10118Y17296D01*
X10219Y17337D01*
X10306Y17404D01*
X10373Y17491D01*
X10414Y17592D01*
X10429Y17700D01*
X10423Y17743D01*
X10429Y17790D01*
X10413Y17911D01*
X10366Y18025D01*
X10292Y18122D01*
X10195Y18196D01*
X10081Y18243D01*
X9960Y18259D01*
X6235D01*
X4666Y19827D01*
Y24273D01*
X5447Y25053D01*
X5461Y25075D01*
X5466Y25100D01*
Y25387D01*
X5565Y25402D01*
X5575Y25369D01*
X5631Y25265D01*
X5706Y25174D01*
X5797Y25099D01*
X5901Y25043D01*
X6014Y25009D01*
X6057Y25004D01*
Y25600D01*
Y26196D01*
X6014Y26191D01*
X5901Y26157D01*
X5797Y26101D01*
X5706Y26026D01*
X5631Y25935D01*
X5575Y25831D01*
X5565Y25798D01*
X5466Y25813D01*
Y26400D01*
X5461Y26425D01*
X5447Y26447D01*
X5425Y26461D01*
X5400Y26466D01*
X3739D01*
X3687Y26518D01*
X3687Y26537D01*
X3687Y26537D01*
X3687D01*
Y26740D01*
D02*
G37*
G36*
X18461Y25200D02*
X18249D01*
Y24978D01*
X18461D01*
Y25200D01*
D02*
G37*
G36*
X16740Y25557D02*
X16518D01*
Y25345D01*
X16740D01*
Y25557D01*
D02*
G37*
G36*
X9107Y16377D02*
X8895D01*
Y16155D01*
X9107D01*
Y16377D01*
D02*
G37*
G36*
X5310Y15860D02*
X4785D01*
Y15335D01*
X5310D01*
Y15860D01*
D02*
G37*
G36*
X8745Y16377D02*
X8533D01*
Y16155D01*
X8745D01*
Y16377D01*
D02*
G37*
G36*
X4635Y15860D02*
X4110D01*
Y15335D01*
X4635D01*
Y15860D01*
D02*
G37*
G36*
X8081Y16881D02*
X7525D01*
Y16541D01*
X8081D01*
Y16881D01*
D02*
G37*
G36*
X7375D02*
X6819D01*
Y16541D01*
X7375D01*
Y16881D01*
D02*
G37*
G36*
X18327Y16367D02*
X18115D01*
Y16145D01*
X18327D01*
Y16367D01*
D02*
G37*
G36*
X10630Y15957D02*
X10408D01*
Y15745D01*
X10630D01*
Y15957D01*
D02*
G37*
G36*
Y15595D02*
X10408D01*
Y15383D01*
X10630D01*
Y15595D01*
D02*
G37*
G36*
X6468Y15251D02*
X6325D01*
Y15108D01*
X6468D01*
Y15251D01*
D02*
G37*
G36*
X17965Y16367D02*
X17753D01*
Y16145D01*
X17965D01*
Y16367D01*
D02*
G37*
G36*
X14404Y16051D02*
X14056D01*
Y15934D01*
X14227D01*
X14301Y15948D01*
X14363Y15990D01*
X14404Y16051D01*
D02*
G37*
G36*
X6175Y15251D02*
X6032D01*
Y15108D01*
X6175D01*
Y15251D01*
D02*
G37*
G36*
X12595Y18322D02*
X12383D01*
Y18100D01*
X12595D01*
Y18322D01*
D02*
G37*
G36*
X7471Y21425D02*
X6944D01*
Y20918D01*
X7471D01*
Y21425D01*
D02*
G37*
G36*
X6794D02*
X6267D01*
Y20918D01*
X6794D01*
Y21425D01*
D02*
G37*
G36*
X6053D02*
X5526D01*
Y20918D01*
X6053D01*
Y21425D01*
D02*
G37*
G36*
X15897Y21262D02*
X15685D01*
Y21040D01*
X15897D01*
Y21262D01*
D02*
G37*
G36*
X6175Y14958D02*
X6032D01*
Y14815D01*
X6175D01*
Y14958D01*
D02*
G37*
G36*
X15535Y21262D02*
X15323D01*
Y21040D01*
X15535D01*
Y21262D01*
D02*
G37*
G36*
X5376Y21425D02*
X4849D01*
Y20918D01*
X5376D01*
Y21425D01*
D02*
G37*
G36*
X6468Y14958D02*
X6325D01*
Y14815D01*
X6468D01*
Y14958D01*
D02*
G37*
G36*
X13910Y26967D02*
X13360D01*
X13315Y26958D01*
X13277Y26933D01*
X12877Y26533D01*
X12852Y26495D01*
X12843Y26450D01*
Y24442D01*
X12714D01*
Y24272D01*
X12671Y24239D01*
X12071Y23639D01*
X12029Y23584D01*
X12017Y23557D01*
X12002Y23519D01*
X11998Y23487D01*
X11993Y23450D01*
Y20171D01*
X11375Y19553D01*
X11275Y19553D01*
X10466Y20361D01*
Y26400D01*
X10461Y26425D01*
X10447Y26447D01*
X10425Y26461D01*
X10400Y26466D01*
X10039D01*
X9987Y26518D01*
X9987Y26537D01*
X9987Y26537D01*
X9987D01*
Y26740D01*
X9413D01*
Y26537D01*
X9413D01*
X9413Y26537D01*
X9413Y26518D01*
X9361Y26466D01*
X9239D01*
X9187Y26518D01*
X9187Y26537D01*
X9187Y26537D01*
X9187D01*
Y26740D01*
X8613D01*
Y26537D01*
X8613D01*
X8613Y26537D01*
X8613Y26518D01*
X8561Y26466D01*
X6800D01*
X6775Y26461D01*
X6753Y26447D01*
X6739Y26425D01*
X6734Y26400D01*
Y25953D01*
X6637Y25929D01*
X6633Y25935D01*
X6558Y26026D01*
X6467Y26101D01*
X6363Y26157D01*
X6250Y26191D01*
X6207Y26196D01*
Y25600D01*
Y25004D01*
X6250Y25009D01*
X6363Y25043D01*
X6467Y25099D01*
X6558Y25174D01*
X6633Y25265D01*
X6637Y25271D01*
X6734Y25247D01*
Y25100D01*
X6739Y25075D01*
X6753Y25053D01*
X7553Y24253D01*
X7575Y24239D01*
X7600Y24234D01*
X7634D01*
Y21100D01*
X7639Y21075D01*
X7653Y21053D01*
X8953Y19753D01*
X8975Y19739D01*
X9000Y19734D01*
X9839D01*
X10796Y18776D01*
Y16160D01*
X10811Y16045D01*
X10813Y16040D01*
X10780Y15990D01*
Y15670D01*
Y15383D01*
X11002D01*
Y15418D01*
X11073D01*
Y15418D01*
X11148D01*
X11364Y15203D01*
Y15084D01*
X11350Y15075D01*
X11316Y15024D01*
X11304Y14964D01*
X11316Y14904D01*
X11350Y14853D01*
Y14819D01*
X11316Y14768D01*
X11304Y14708D01*
X11316Y14648D01*
X11346Y14603D01*
X11325Y14588D01*
X11284Y14527D01*
X12144D01*
X12158Y14544D01*
X12228Y14591D01*
X12438D01*
Y14543D01*
X12942D01*
Y15067D01*
X12438D01*
Y14825D01*
X12215D01*
X12098Y14904D01*
X12109Y14964D01*
X12098Y15024D01*
X12064Y15075D01*
X12013Y15109D01*
X11986Y15114D01*
Y15990D01*
X11984Y16002D01*
X11982Y16013D01*
X11981Y16014D01*
X11981Y16015D01*
X11975Y16025D01*
X11968Y16035D01*
X11684Y16339D01*
Y18960D01*
X11669Y19075D01*
X11664Y19086D01*
X12449Y19871D01*
X12470Y19899D01*
X12491Y19926D01*
X12518Y19991D01*
X12527Y20060D01*
Y23339D01*
X12871Y23683D01*
X14058Y23664D01*
Y23553D01*
X14058D01*
Y23517D01*
X14023Y23482D01*
X14023D01*
Y23335D01*
X13941D01*
Y23335D01*
X13385D01*
Y22979D01*
Y22623D01*
X13942D01*
Y22888D01*
X14023D01*
Y22888D01*
X14235D01*
Y23185D01*
X14310D01*
Y23260D01*
X14597D01*
Y23482D01*
X14562D01*
Y23553D01*
X14562D01*
Y23801D01*
X14627Y23866D01*
X14641Y23888D01*
X14646Y23913D01*
Y24253D01*
X14717Y24324D01*
X14733D01*
X14733D01*
X14753Y24324D01*
X14753Y24324D01*
X14753Y24324D01*
X15099D01*
Y24788D01*
Y24962D01*
X14955D01*
Y25252D01*
X14753D01*
Y25252D01*
X14753Y25252D01*
X14733Y25252D01*
X14733D01*
X14665Y25252D01*
X14645Y25283D01*
X14594Y25317D01*
X14534Y25329D01*
X14435D01*
Y26443D01*
X14426Y26487D01*
X14400Y26526D01*
X13993Y26933D01*
X13955Y26958D01*
X13910Y26967D01*
D02*
G37*
G36*
X12957Y18322D02*
X12745D01*
Y18100D01*
X12957D01*
Y18322D01*
D02*
G37*
G36*
X14963Y21430D02*
X14485D01*
Y20903D01*
X14963D01*
Y21430D01*
D02*
G37*
G36*
X14335D02*
X13857D01*
Y20903D01*
X14335D01*
Y21430D01*
D02*
G37*
G36*
X16928Y19922D02*
X16927Y19921D01*
X16865Y19880D01*
X16824Y19819D01*
X16929D01*
X16928Y19922D01*
D02*
G37*
%LPD*%
G36*
X7980Y14660D02*
X7260Y13940D01*
X7010D01*
X6920Y14030D01*
Y15600D01*
X7980D01*
Y14660D01*
D02*
G37*
G36*
X11920Y15990D02*
Y14970D01*
X11430D01*
Y15230D01*
X11140Y15520D01*
Y15920D01*
X10940Y16290D01*
X10880Y16310D01*
X11620D01*
X11920Y15990D01*
D02*
G37*
G36*
X6880Y13870D02*
X7330D01*
X7450Y13750D01*
Y13400D01*
X7260Y13210D01*
X4510D01*
X4080Y13533D01*
Y14168D01*
X4409Y14510D01*
X6240D01*
X6880Y13870D01*
D02*
G37*
G36*
X5400Y25100D02*
X4600Y24300D01*
Y19800D01*
X6200Y18200D01*
Y17400D01*
X4800D01*
X1800Y20400D01*
Y26400D01*
X5400D01*
Y25100D01*
D02*
G37*
G36*
X10400Y20200D02*
X10000Y19800D01*
X9000D01*
X7700Y21100D01*
Y24300D01*
X7600D01*
X6800Y25100D01*
Y26400D01*
X10400D01*
Y20200D01*
D02*
G37*
G36*
X28717Y8817D02*
X28755Y8792D01*
X28755Y8792D01*
X28755Y8792D01*
D01*
X28755Y8792D01*
X28755Y8792D01*
X28800Y8783D01*
X29015D01*
X29052Y8727D01*
X29092Y8700D01*
Y8600D01*
X29052Y8573D01*
X29035Y8547D01*
X24963D01*
X24930Y8627D01*
X24868Y8708D01*
X24787Y8770D01*
X24692Y8810D01*
X24590Y8823D01*
X24570Y8821D01*
X24526Y8910D01*
X24662Y9046D01*
X24692Y9050D01*
X24787Y9090D01*
X24868Y9152D01*
X24930Y9233D01*
X24963Y9313D01*
X28221D01*
X28717Y8817D01*
D02*
G37*
G36*
X14580Y23913D02*
X14392Y23725D01*
X12810Y23750D01*
X12760Y23950D01*
X14093Y24489D01*
X14580D01*
Y23913D01*
D02*
G37*
G36*
X14200Y26394D02*
Y25329D01*
X14101D01*
X14041Y25317D01*
X13990Y25283D01*
X13956Y25232D01*
X13944Y25172D01*
X13951Y25136D01*
X13920Y25098D01*
X13877Y25113D01*
X13826Y25190D01*
Y25235D01*
X13826D01*
Y25271D01*
X13861Y25306D01*
X13861D01*
Y25528D01*
X13287D01*
Y25306D01*
X13322D01*
Y25235D01*
X13322D01*
Y24711D01*
X13826D01*
Y24711D01*
X13939Y24711D01*
X13951Y24696D01*
X13944Y24660D01*
X13956Y24600D01*
X13962Y24592D01*
X13933Y24496D01*
X13799Y24442D01*
X13077D01*
Y26401D01*
X13409Y26733D01*
X13861D01*
X14200Y26394D01*
D02*
G37*
%LPC*%
G36*
X13861Y25900D02*
X13649D01*
Y25678D01*
X13861D01*
Y25900D01*
D02*
G37*
G36*
X13499D02*
X13287D01*
Y25678D01*
X13499D01*
Y25900D01*
D02*
G37*
%LPD*%
D10*
X15335Y9372D02*
D03*
X15080D02*
D03*
X14824D02*
D03*
X14568D02*
D03*
X14312D02*
D03*
X14056D02*
D03*
X13800D02*
D03*
X13544D02*
D03*
X13288D02*
D03*
X13032D02*
D03*
X12776D02*
D03*
X12520D02*
D03*
X12265D02*
D03*
X12009D02*
D03*
X15335Y7128D02*
D03*
X15080D02*
D03*
X14824D02*
D03*
X14568D02*
D03*
X14312D02*
D03*
X14056D02*
D03*
X13800D02*
D03*
X13544D02*
D03*
X13288D02*
D03*
X13032D02*
D03*
X12776D02*
D03*
X12520D02*
D03*
X12265D02*
D03*
X12009D02*
D03*
D11*
X6250Y4633D02*
D03*
Y3767D02*
D03*
Y11867D02*
D03*
Y12733D02*
D03*
Y10933D02*
D03*
Y10067D02*
D03*
Y15033D02*
D03*
Y14167D02*
D03*
Y8517D02*
D03*
Y9383D02*
D03*
Y5867D02*
D03*
Y6733D02*
D03*
Y2367D02*
D03*
Y3233D02*
D03*
D12*
X20005Y1750D02*
D03*
Y2250D02*
D03*
Y2750D02*
D03*
Y3250D02*
D03*
X18115Y1750D02*
D03*
Y2250D02*
D03*
Y2750D02*
D03*
Y3250D02*
D03*
D13*
X17060Y1765D02*
D03*
Y1135D02*
D03*
X21010Y1765D02*
D03*
Y1135D02*
D03*
X22610Y5415D02*
D03*
Y4785D02*
D03*
X3400Y26185D02*
D03*
Y26815D02*
D03*
X2600Y26815D02*
D03*
Y26185D02*
D03*
X8900Y26815D02*
D03*
Y26185D02*
D03*
X9700Y26185D02*
D03*
Y26815D02*
D03*
X17200Y5415D02*
D03*
Y4785D02*
D03*
X14310Y23185D02*
D03*
Y23815D02*
D03*
X6950Y6285D02*
D03*
Y6915D02*
D03*
X8820Y15450D02*
D03*
Y16080D02*
D03*
X12690Y15435D02*
D03*
Y14805D02*
D03*
X12670Y17395D02*
D03*
Y18025D02*
D03*
X6950Y9065D02*
D03*
Y8435D02*
D03*
X17474Y24903D02*
D03*
Y24273D02*
D03*
X15610Y20965D02*
D03*
Y20335D02*
D03*
X17970Y19825D02*
D03*
Y19195D02*
D03*
X16408Y16095D02*
D03*
Y16725D02*
D03*
X13574Y25603D02*
D03*
Y24973D02*
D03*
X16774Y24903D02*
D03*
Y24273D02*
D03*
X13672Y5665D02*
D03*
Y6295D02*
D03*
X15970Y10145D02*
D03*
Y9515D02*
D03*
X7600Y6285D02*
D03*
Y6915D02*
D03*
X18174Y24273D02*
D03*
Y24903D02*
D03*
X18040Y15440D02*
D03*
Y16070D02*
D03*
X17390Y16070D02*
D03*
Y15440D02*
D03*
X22630Y2905D02*
D03*
Y3535D02*
D03*
X11930Y11935D02*
D03*
Y12565D02*
D03*
X13010Y11935D02*
D03*
Y12565D02*
D03*
D14*
X18760Y24323D02*
D03*
Y24677D02*
D03*
D15*
X3790Y23500D02*
D03*
X5530D02*
D03*
X6790D02*
D03*
X8530D02*
D03*
D16*
X5451Y21500D02*
D03*
X3069D02*
D03*
X9251D02*
D03*
X6869D02*
D03*
D17*
X21651Y4850D02*
D03*
Y5350D02*
D03*
Y5850D02*
D03*
Y6350D02*
D03*
Y6850D02*
D03*
Y7350D02*
D03*
Y7850D02*
D03*
Y8350D02*
D03*
X18069Y4850D02*
D03*
Y5350D02*
D03*
Y5850D02*
D03*
Y6350D02*
D03*
Y6850D02*
D03*
Y7350D02*
D03*
Y7850D02*
D03*
Y8350D02*
D03*
D18*
X9690Y6135D02*
D03*
Y6835D02*
D03*
X8780Y14175D02*
D03*
Y14875D02*
D03*
X8870Y3110D02*
D03*
Y3810D02*
D03*
X9050Y8650D02*
D03*
Y9350D02*
D03*
X8400Y10950D02*
D03*
Y11650D02*
D03*
X12570Y16090D02*
D03*
Y16790D02*
D03*
D19*
X9690Y6485D02*
D03*
X8780Y14525D02*
D03*
X8870Y3460D02*
D03*
X9050Y9000D02*
D03*
X8400Y11300D02*
D03*
X12570Y16440D02*
D03*
D20*
X12080Y11110D02*
D03*
X12780D02*
D03*
D21*
X12430D02*
D03*
D22*
X17247Y18976D02*
D03*
Y19232D02*
D03*
Y19488D02*
D03*
Y19744D02*
D03*
X15593Y18976D02*
D03*
Y19232D02*
D03*
Y19488D02*
D03*
Y19744D02*
D03*
X10053Y14964D02*
D03*
Y14708D02*
D03*
Y14452D02*
D03*
Y14196D02*
D03*
X11707Y14964D02*
D03*
Y14708D02*
D03*
Y14452D02*
D03*
Y14196D02*
D03*
X13981Y16894D02*
D03*
Y16638D02*
D03*
Y16382D02*
D03*
Y16126D02*
D03*
X15635Y16894D02*
D03*
Y16638D02*
D03*
Y16382D02*
D03*
Y16126D02*
D03*
D23*
X15174Y24788D02*
D03*
D24*
X16030Y24404D02*
D03*
Y24660D02*
D03*
Y24916D02*
D03*
Y25172D02*
D03*
X14317Y24404D02*
D03*
Y24660D02*
D03*
Y24916D02*
D03*
Y25172D02*
D03*
D25*
X7565Y7650D02*
D03*
X6935D02*
D03*
X8715Y13600D02*
D03*
X8085D02*
D03*
X17445Y25632D02*
D03*
X16815D02*
D03*
X10695Y13590D02*
D03*
X11325D02*
D03*
X10705Y15670D02*
D03*
X11335D02*
D03*
X15315Y10190D02*
D03*
X14685D02*
D03*
X28415Y6900D02*
D03*
X27785D02*
D03*
X27785Y7900D02*
D03*
X28415D02*
D03*
X6985Y11850D02*
D03*
X7615D02*
D03*
X6985Y10750D02*
D03*
X7615D02*
D03*
X7635Y9600D02*
D03*
X8265D02*
D03*
X7635Y8450D02*
D03*
X8265D02*
D03*
X8285Y7100D02*
D03*
X8915D02*
D03*
X8285Y5900D02*
D03*
X8915D02*
D03*
X7495Y4200D02*
D03*
X8125D02*
D03*
X7555Y2760D02*
D03*
X8185D02*
D03*
D26*
X7450Y15144D02*
D03*
Y16956D02*
D03*
D27*
X14410Y21505D02*
D03*
Y19635D02*
D03*
X14150Y12985D02*
D03*
Y11115D02*
D03*
D28*
X13310Y22979D02*
D03*
Y24121D02*
D03*
D29*
X8035Y13650D02*
X8085Y13600D01*
X7150Y13650D02*
X8035D01*
X6843Y8517D02*
X6937Y8423D01*
X6950Y8410D02*
Y8435D01*
Y7665D02*
Y8410D01*
X6935Y7650D02*
X6950Y7665D01*
X6818Y10933D02*
X6968Y10783D01*
X6250Y10933D02*
X6818D01*
X4700Y10712D02*
X4921Y10933D01*
X6250D01*
Y8517D02*
X6843D01*
X5933D02*
X6250D01*
X5116Y9334D02*
X5933Y8517D01*
X4700Y9334D02*
X5116D01*
X4700Y12090D02*
X6027D01*
X6968Y11867D02*
X6985Y11850D01*
X6250Y11867D02*
X6968D01*
X6027Y12090D02*
X6250Y11867D01*
X6950Y8410D02*
X7585D01*
X8780Y13690D02*
X8845Y13625D01*
X8780Y13690D02*
Y14175D01*
X13981Y17450D02*
Y19556D01*
Y16912D02*
Y17450D01*
X14331Y19556D02*
X14410Y19635D01*
X15635Y16912D02*
Y18070D01*
X8780Y14175D02*
X8807Y14149D01*
X8790Y15413D02*
X8830Y15510D01*
X8790Y15413D02*
X8814Y15389D01*
Y14909D02*
Y15389D01*
D30*
X8265Y8450D02*
X8300D01*
X8265Y9600D02*
X8275Y9590D01*
X8810D01*
X4710Y7400D02*
X4960Y7650D01*
X9300Y9600D02*
X10300D01*
X11210Y8690D01*
X9720Y8390D02*
X9730Y8400D01*
X9310Y8390D02*
X9720D01*
X8810Y9590D02*
X9050Y9350D01*
X8800Y8400D02*
X9050Y8650D01*
X8415Y8400D02*
X8800D01*
X7565Y7650D02*
X7600Y7615D01*
Y6915D02*
Y7615D01*
X4863Y5867D02*
X6250D01*
X6532D01*
X7985Y5900D02*
X8285D01*
X7600Y6285D02*
X7985Y5900D01*
X6950Y6285D02*
X7600D01*
X6532Y5867D02*
X6950Y6285D01*
X7785Y7100D02*
X8285D01*
X7600Y6915D02*
X7785Y7100D01*
X6950Y6915D02*
X7600D01*
X6950D02*
Y6950D01*
X6250Y7650D02*
X6950Y6950D01*
X4960Y7650D02*
X6250D01*
X13500Y14350D02*
X14150D01*
X12490Y13340D02*
X13500Y14350D01*
X12490Y12840D02*
Y13340D01*
X14150Y14350D02*
X15580Y15780D01*
Y16126D01*
X11900Y12620D02*
Y13200D01*
X12760Y5210D02*
Y5470D01*
X10410Y2860D02*
X12760Y5210D01*
X9120Y2860D02*
X10410D01*
X12520Y6120D02*
Y7128D01*
X10460Y4060D02*
X12520Y6120D01*
X9120Y4060D02*
X10460D01*
X9993Y7138D02*
X12009D01*
X7550Y10000D02*
X9850D01*
X12902Y8100D02*
X13252Y7750D01*
X11300Y8100D02*
X12902D01*
X6985Y11850D02*
Y12185D01*
X7200Y12400D01*
X7750D01*
X7615Y10750D02*
X8150D01*
X10330D02*
X11708Y9372D01*
X8650Y10750D02*
X10330D01*
X10090Y11900D02*
X12265Y9725D01*
X8650Y11900D02*
X10090D01*
X7665D02*
X8150D01*
X7615Y11850D02*
X7665Y11900D01*
X6968Y10582D02*
X7550Y10000D01*
X6918Y10632D02*
X6968Y10582D01*
Y10783D01*
X8450Y10950D02*
X8650Y10750D01*
X8400Y10950D02*
X8450D01*
X8350D02*
X8400D01*
X8150Y10750D02*
X8350Y10950D01*
X13672Y8400D02*
X13800Y8528D01*
X9730Y8400D02*
X13672D01*
X9050Y8650D02*
X9310Y8390D01*
X8150Y11900D02*
X8400Y11650D01*
X16410Y5700D02*
X16610Y5900D01*
X15800Y5700D02*
X16410D01*
X15772Y7128D02*
X15800Y7100D01*
X15335Y7128D02*
X15772D01*
X14312Y6248D02*
X14460Y6100D01*
X16200D01*
X16500Y6400D01*
X15090Y6610D02*
X15210Y6490D01*
X16300Y6900D02*
X18260D01*
X15210Y6490D02*
X15890D01*
X16300Y6900D01*
X15090Y6610D02*
Y7030D01*
X21651Y6850D02*
X22450D01*
X22500Y6900D01*
X24920Y2000D02*
X27820Y4900D01*
X29350D01*
X23900Y2250D02*
X27550Y5900D01*
X29350D01*
X29300Y6350D02*
X29350Y6400D01*
X28400Y7400D02*
X29350D01*
X24590Y8400D02*
X28080D01*
X29320Y8430D02*
X29350Y8400D01*
X24590Y8430D02*
X29320D01*
X28800Y8900D02*
X29350D01*
X28270Y9430D02*
X28800Y8900D01*
X24590Y9430D02*
X28270D01*
X16190Y7350D02*
X17160D01*
X15790Y7750D02*
X16190Y7350D01*
X15060Y7750D02*
X15790D01*
X14824Y7514D02*
X15060Y7750D01*
X14810Y8350D02*
X16190D01*
X14560Y8620D02*
X14832Y8348D01*
X14568Y8620D02*
Y9372D01*
X20310Y2250D02*
X23900D01*
X24380Y7430D02*
X24590D01*
X22860Y5910D02*
X24380Y7430D01*
X21831Y5910D02*
X22860D01*
X22575Y6385D02*
X24590Y8400D01*
X21466Y6385D02*
X22575D01*
X7563Y2753D02*
X7583Y2773D01*
X4720Y2740D02*
X5093Y2367D01*
X6360D01*
X7162D01*
X7555Y2760D01*
X4720Y4120D02*
X5233Y4633D01*
X6360D01*
X4710Y6020D02*
X4863Y5867D01*
X12860Y24050D02*
X12960Y24150D01*
X14317Y25172D02*
Y26443D01*
X13910Y26850D02*
X14317Y26443D01*
X13360Y26850D02*
X13910D01*
X12960Y26450D02*
X13360Y26850D01*
X12960Y24150D02*
Y26450D01*
X17060Y2300D02*
X18165D01*
X14710Y4650D02*
X17060Y2300D01*
X17010Y2800D02*
X18165D01*
X14056Y5754D02*
X17010Y2800D01*
X26510Y6350D02*
X29300D01*
X20110Y2800D02*
X23700D01*
X14568Y6642D02*
Y7128D01*
Y6642D02*
X14710Y6500D01*
Y6400D02*
Y6500D01*
X14312Y6248D02*
Y7128D01*
X14056Y5754D02*
Y7128D01*
X16610Y5900D02*
X18060D01*
X16500Y6400D02*
X18060D01*
X14824Y7128D02*
Y7514D01*
X17160Y7350D02*
X18260D01*
X21541Y6360D02*
X21616Y6435D01*
X17959Y5890D02*
X18229D01*
X11900Y13200D02*
X15082Y16382D01*
X15635D01*
X13280Y16110D02*
X13552Y16382D01*
X12690Y16110D02*
X13280D01*
X12690Y15555D02*
Y16110D01*
X13320Y16890D02*
X13562Y16648D01*
X12690Y16890D02*
X13320D01*
X13202Y23888D02*
X13445D01*
X21481Y6860D02*
X21541D01*
X21481Y6360D02*
X21541D01*
X12770Y11245D02*
X13050Y11525D01*
Y11930D01*
X12265Y9449D02*
Y9725D01*
X11710Y10586D02*
X12520Y9776D01*
X11485Y13600D02*
X11585D01*
X9405Y14525D02*
X9420Y14510D01*
X12776Y5486D02*
Y7128D01*
X12760Y5470D02*
X12776Y5486D01*
X12520Y9372D02*
Y9776D01*
X11710Y10586D02*
Y10875D01*
X13110Y10520D02*
Y10905D01*
X12776Y10186D02*
X13110Y10520D01*
X12776Y9372D02*
Y10186D01*
X12325Y12675D02*
X12490Y12840D01*
X11900Y12675D02*
X12325D01*
X13462Y8690D02*
X13544Y8772D01*
X11210Y8690D02*
X13462D01*
X10560Y7750D02*
X12912D01*
Y7740D02*
X13032Y7620D01*
Y9970D02*
X13142Y10080D01*
X13572Y7900D02*
X13612D01*
X13522Y7850D02*
X13572Y7900D01*
X8780Y14875D02*
X8814Y14909D01*
X13800Y8528D02*
Y9372D01*
X8185Y2760D02*
X8520D01*
X8870Y3110D01*
Y3810D02*
X9120Y4060D01*
X8870Y3110D02*
X9120Y2860D01*
X11797Y15184D02*
Y15488D01*
X11485Y15600D02*
X11797Y15288D01*
Y13812D02*
Y14216D01*
X11585Y13600D02*
X11797Y13812D01*
X11707Y14708D02*
X12710D01*
X15524Y16126D02*
X15635D01*
X13552Y16382D02*
X13981D01*
X13552Y16638D02*
X13981D01*
X12265Y6593D02*
Y7128D01*
X11555Y5883D02*
X12265Y6593D01*
X11820Y11495D02*
Y11930D01*
Y11495D02*
X12070Y11245D01*
X9005Y5885D02*
X9440D01*
X9690Y6135D01*
X9005Y7085D02*
X9440D01*
X9690Y6835D01*
Y6135D02*
X9940Y5885D01*
X11485Y13215D02*
Y13600D01*
X11230Y12960D02*
X11485Y13215D01*
X12690Y16890D02*
Y17525D01*
X13252Y7164D02*
X13288Y7128D01*
X13252Y7164D02*
Y7750D01*
X13544Y9372D02*
X13572Y9400D01*
X13032Y9372D02*
Y9970D01*
X13544Y7128D02*
Y7828D01*
X13522Y7850D02*
X13544Y7828D01*
X9690Y6835D02*
X9993Y7138D01*
X9940Y5885D02*
X11555D01*
X8400Y11650D02*
X8650Y11900D01*
X6360Y4633D02*
X7062D01*
X8185Y4060D02*
X8325Y4200D01*
X8480D01*
X8870Y3810D01*
X7062Y4633D02*
X7495Y4200D01*
X12770Y11245D02*
X13110Y10905D01*
X11710Y10885D02*
X12070Y11245D01*
X13032Y7128D02*
Y7620D01*
X9050Y9350D02*
X9300Y9600D01*
X13544Y8772D02*
Y9372D01*
X21541Y7360D02*
X22810D01*
X24590Y9140D01*
Y9430D01*
X24500Y2000D02*
X24920D01*
X11708Y9372D02*
X12009D01*
D31*
X23100Y5410D02*
Y5450D01*
Y5410D02*
X23160Y5350D01*
X16220Y7870D02*
Y8700D01*
X15970Y8950D02*
X16220Y8700D01*
X15970Y8950D02*
Y9515D01*
X7100Y9065D02*
X7635Y9600D01*
X6950Y9065D02*
X7100D01*
X6250Y9750D02*
Y10067D01*
Y9383D02*
Y9750D01*
X6800D01*
X6317Y12800D02*
X6800D01*
X6250Y12733D02*
X6317Y12800D01*
X13610Y14000D02*
X16910D01*
X13010Y13400D02*
X13610Y14000D01*
X6250Y3390D02*
Y3767D01*
Y3390D02*
X6360Y3500D01*
X6250Y3233D02*
Y3390D01*
X6360Y3500D02*
X6750D01*
X16700Y5450D02*
X16735Y5415D01*
X17200D01*
X17265Y5350D01*
X18069D01*
X16285Y2525D02*
X16995Y1815D01*
X18069Y4850D02*
X18110D01*
X16260D02*
X18069D01*
X13442Y6270D02*
X13727D01*
X27785Y6900D02*
X27785Y6900D01*
X27785Y6900D02*
Y7900D01*
X28415Y6900D02*
X29350D01*
X25700Y6690D02*
X26910Y7900D01*
X27785D01*
X16230Y7860D02*
X17959D01*
X16220Y7870D02*
X16230Y7860D01*
X17360Y10385D02*
Y15455D01*
X16490Y9515D02*
X17360Y10385D01*
X15970Y9515D02*
X16490D01*
X21010Y1050D02*
X21500D01*
X17075Y1700D02*
X17125Y1750D01*
X18115D01*
X23270Y4860D02*
X24060Y5650D01*
X20005Y1750D02*
X23260D01*
X20260Y3250D02*
X20810D01*
X22980Y5350D02*
X23160D01*
X22970Y5340D02*
X22980Y5350D01*
X17310Y3250D02*
X18215D01*
X21541Y7860D02*
X22550D01*
X17360Y15455D02*
X18025D01*
X17640Y15465D02*
X18090D01*
X17959Y8360D02*
Y9170D01*
X17390Y16080D02*
Y18010D01*
X17970Y19220D02*
X18580D01*
X16910Y14000D02*
Y17715D01*
X16795Y17830D02*
X16910Y17715D01*
X16795Y17830D02*
Y17845D01*
X16570Y18070D02*
X16795Y17845D01*
X13245Y16455D02*
X13270Y16480D01*
X15970Y10145D02*
Y10730D01*
X13010Y12500D02*
Y13400D01*
X13222Y6050D02*
X13442Y6270D01*
X16408Y16725D02*
Y17410D01*
X21536Y5340D02*
X22970D01*
X18025Y15455D02*
X18040Y15440D01*
X18710Y24677D02*
Y25250D01*
X18830Y25282D02*
X18880Y25332D01*
X18174Y24903D02*
Y25488D01*
X18040Y16070D02*
Y16755D01*
X3400Y26815D02*
Y27100D01*
X3000Y27500D02*
X3400Y27100D01*
X2600Y26815D02*
Y27100D01*
X3000Y27500D01*
X13574Y25603D02*
Y26288D01*
X14360Y22515D02*
Y23200D01*
X17910Y20470D02*
X17970Y20410D01*
Y19825D02*
Y20410D01*
X13072Y4350D02*
X13222Y4500D01*
Y6050D01*
X13981Y17450D02*
X14601Y18070D01*
X15635D01*
X16570D01*
X14310Y21605D02*
X14465Y21760D01*
X15420D02*
X15520Y21660D01*
X15620Y20975D02*
Y21560D01*
X16615Y25832D02*
X16815Y25632D01*
X16030Y25832D02*
X16615D01*
X14465Y21760D02*
X15420D01*
X16910Y12443D02*
Y14000D01*
X14710Y10243D02*
X16910Y12443D01*
X15315Y10190D02*
X15800D01*
X13610Y22150D02*
Y22500D01*
X13431Y22679D02*
X13610Y22500D01*
X12910Y22279D02*
Y22500D01*
X13260Y22850D01*
X7500Y16956D02*
X8700D01*
X8830Y16825D01*
X6566Y16956D02*
X7500D01*
X6410Y16800D02*
X6566Y16956D01*
X10170Y15670D02*
X10705D01*
X10040Y15800D02*
X10170Y15670D01*
X17535Y19825D02*
X17970D01*
X24060Y5650D02*
X24950D01*
X25700Y6400D01*
Y6690D01*
X22610Y3675D02*
Y4785D01*
X21541Y4860D02*
X23270D01*
D32*
X13650Y10615D02*
X14150Y11115D01*
X13650Y10128D02*
Y10615D01*
X13288Y9766D02*
X13650Y10128D01*
X12260Y14440D02*
X12350Y14350D01*
X12110Y14440D02*
X12260D01*
X12570Y16440D02*
X12690D01*
X11870D02*
X12570D01*
X12585Y16455D02*
X13245D01*
X12640Y18150D02*
Y18550D01*
X8780Y14525D02*
X9405D01*
X13981Y15800D02*
Y16126D01*
X13672Y4900D02*
X13782D01*
X13672D02*
Y5585D01*
X9600Y3460D02*
X9610Y3450D01*
X8870Y3460D02*
X9600D01*
X8860Y3450D02*
X8870Y3460D01*
X8160Y3450D02*
X8860D01*
X10420Y6485D02*
X10430Y6475D01*
X9690Y6485D02*
X10420D01*
X9680Y6475D02*
X9690Y6485D01*
X8980Y6475D02*
X9680D01*
X8350Y9000D02*
X9800D01*
X12460Y10290D02*
Y11040D01*
X12420Y11245D02*
Y11860D01*
X10010Y13600D02*
X10695D01*
X8155Y14215D02*
X8460Y14520D01*
X16024Y25838D02*
X16030Y25832D01*
Y25172D02*
Y25832D01*
X17247Y19744D02*
X17260Y19757D01*
X16408Y15410D02*
Y16095D01*
X8400Y11300D02*
X9150D01*
X7630D02*
X8380D01*
X8900Y14970D02*
X10189D01*
X13288Y9372D02*
Y9766D01*
X16030Y24660D02*
X16531D01*
X16774Y24903D01*
X17474D01*
Y25673D01*
X13574Y24973D02*
X13631Y24916D01*
X14317D01*
X15593Y19744D02*
Y20318D01*
X15620Y20345D01*
X14457Y19488D02*
X15593D01*
X16321Y16638D02*
X16408Y16725D01*
X15635Y16638D02*
X16321D01*
X15400Y9490D02*
X15893D01*
X15080Y8673D02*
Y9372D01*
Y8673D02*
X15112Y8640D01*
X14056Y8716D02*
Y9372D01*
Y8716D02*
X14122Y8650D01*
X14320Y21495D02*
X14370Y21545D01*
X8910Y14200D02*
X10199D01*
X14056Y9372D02*
Y10190D01*
X14312Y9372D02*
Y9945D01*
X14600Y10233D01*
X15080Y9372D02*
Y9955D01*
X15315Y10190D01*
X8830Y16080D02*
Y16765D01*
Y16825D01*
D33*
X14165Y13000D02*
X15100D01*
X15090Y12990D02*
X15100Y13000D01*
X17390Y18010D02*
X18590Y19210D01*
X12260Y20060D02*
Y23450D01*
X11360Y19160D02*
X12260Y20060D01*
Y23450D02*
X12860Y24050D01*
X18610Y19100D02*
Y24250D01*
X17474Y24273D02*
X18174D01*
X16774D02*
X17474D01*
X18174D02*
X18779D01*
D34*
X10000Y20200D02*
X11240Y18960D01*
Y16160D02*
Y18960D01*
X10000Y20200D02*
Y20400D01*
D35*
X5950Y17790D02*
X9960D01*
D36*
X4544Y25767D02*
X4771Y25540D01*
X4510Y13800D02*
X6397D01*
D37*
X7150Y13650D02*
D03*
Y14150D02*
D03*
X10110Y13590D02*
D03*
D38*
X4700Y10712D02*
D03*
Y9334D02*
D03*
X6132Y25600D02*
D03*
X4754D02*
D03*
X4710Y6020D02*
D03*
Y13880D02*
D03*
X4720Y2740D02*
D03*
D39*
X4700Y12090D02*
D03*
X4710Y7400D02*
D03*
Y15260D02*
D03*
X4720Y4120D02*
D03*
D40*
X7510Y25600D02*
D03*
D41*
X24580Y940D02*
D03*
X24590Y6430D02*
D03*
D42*
X24580Y1940D02*
D03*
Y2940D02*
D03*
Y3940D02*
D03*
Y4940D02*
D03*
X24590Y7430D02*
D03*
Y8430D02*
D03*
Y9430D02*
D03*
Y10430D02*
D03*
D43*
X29350Y8400D02*
D03*
Y7900D02*
D03*
Y7400D02*
D03*
Y6900D02*
D03*
Y6400D02*
D03*
Y5900D02*
D03*
Y5400D02*
D03*
Y4900D02*
D03*
Y8900D02*
D03*
Y4400D02*
D03*
D44*
X23100Y5450D02*
D03*
X14056Y10190D02*
D03*
X8350Y9000D02*
D03*
X15150Y14700D02*
D03*
X11950Y4950D02*
D03*
X9850Y10000D02*
D03*
X11300Y8100D02*
D03*
X6750Y5200D02*
D03*
X15800Y7100D02*
D03*
X3200Y16600D02*
D03*
X3300Y1800D02*
D03*
X7300D02*
D03*
X5300D02*
D03*
X11200Y5450D02*
D03*
Y2850D02*
D03*
X9600Y2400D02*
D03*
Y4550D02*
D03*
X2000Y17600D02*
D03*
X18100Y10250D02*
D03*
X19300Y11450D02*
D03*
X20500Y12650D02*
D03*
X21700Y13850D02*
D03*
X22900Y15050D02*
D03*
X25100Y15500D02*
D03*
X27100D02*
D03*
X24600Y28600D02*
D03*
X22600D02*
D03*
X20600D02*
D03*
X18600D02*
D03*
X16600D02*
D03*
X14600D02*
D03*
X12600D02*
D03*
X10600D02*
D03*
X8600D02*
D03*
X6700D02*
D03*
X5200D02*
D03*
X2700D02*
D03*
X600D02*
D03*
Y26600D02*
D03*
Y24600D02*
D03*
Y22600D02*
D03*
Y20600D02*
D03*
Y18600D02*
D03*
Y16600D02*
D03*
X2000Y14600D02*
D03*
X600Y12600D02*
D03*
Y8500D02*
D03*
X2000Y6500D02*
D03*
X600Y5100D02*
D03*
Y600D02*
D03*
X2300D02*
D03*
X4300D02*
D03*
X6300D02*
D03*
X8300D02*
D03*
X10300D02*
D03*
X12300D02*
D03*
X14300D02*
D03*
X16300D02*
D03*
X18000D02*
D03*
X27100Y28800D02*
D03*
X29100D02*
D03*
Y26800D02*
D03*
Y24800D02*
D03*
Y22800D02*
D03*
Y20800D02*
D03*
Y18800D02*
D03*
Y16800D02*
D03*
Y15500D02*
D03*
X20100Y600D02*
D03*
X22000D02*
D03*
X23800D02*
D03*
X27300D02*
D03*
X21500Y9100D02*
D03*
X22700Y10300D02*
D03*
X29300Y600D02*
D03*
Y2000D02*
D03*
X22500Y6900D02*
D03*
X29100Y10100D02*
D03*
Y12700D02*
D03*
X27100D02*
D03*
X23900Y11500D02*
D03*
X26600Y6350D02*
D03*
X28400Y7400D02*
D03*
X7750Y12400D02*
D03*
X16220Y7870D02*
D03*
X23700Y2830D02*
D03*
X21300Y4100D02*
D03*
X26300Y8900D02*
D03*
X25100Y12700D02*
D03*
X27500Y8900D02*
D03*
X29300Y3400D02*
D03*
X29100Y11400D02*
D03*
X25700Y7900D02*
D03*
X16810Y3650D02*
D03*
X21500Y1050D02*
D03*
X16260Y2500D02*
D03*
X16700Y5450D02*
D03*
X14710Y4650D02*
D03*
X16260Y4850D02*
D03*
X15800Y5700D02*
D03*
X26300Y4000D02*
D03*
Y5500D02*
D03*
X13270Y16480D02*
D03*
X11870Y16440D02*
D03*
X12620Y18550D02*
D03*
X14710Y6400D02*
D03*
X17310Y3250D02*
D03*
X16000Y10760D02*
D03*
X9420Y14510D02*
D03*
X8140Y14230D02*
D03*
X10560Y7750D02*
D03*
X13981Y15800D02*
D03*
X13142Y10080D02*
D03*
X13612Y7900D02*
D03*
X14850Y15550D02*
D03*
X9050Y7750D02*
D03*
X9610Y3450D02*
D03*
X8160D02*
D03*
X8980Y6475D02*
D03*
X12350Y14350D02*
D03*
X14122Y8650D02*
D03*
X15112Y8640D02*
D03*
X12420Y11860D02*
D03*
X12460Y10290D02*
D03*
X9800Y9000D02*
D03*
X9150Y11300D02*
D03*
X7630D02*
D03*
X15230Y26232D02*
D03*
X6971Y23430D02*
D03*
X5271Y23440D02*
D03*
X5160Y20800D02*
D03*
X17510Y21640D02*
D03*
X13660Y18600D02*
D03*
X6250Y15450D02*
D03*
X2000Y11100D02*
D03*
Y8500D02*
D03*
Y3100D02*
D03*
X14000Y14750D02*
D03*
X10430Y6475D02*
D03*
X16560Y10420D02*
D03*
X16800Y22390D02*
D03*
X15750Y23140D02*
D03*
X17740Y23020D02*
D03*
D45*
X15090Y12990D02*
D03*
X9300Y27600D02*
D03*
X22650Y7860D02*
D03*
X23310Y1800D02*
D03*
X20910Y3350D02*
D03*
X14910Y3650D02*
D03*
X17960Y9150D02*
D03*
X12910Y22150D02*
D03*
X13610D02*
D03*
X17390Y18010D02*
D03*
X2961Y27461D02*
D03*
X8830Y16765D02*
D03*
X13782Y4900D02*
D03*
X17140Y20410D02*
D03*
X16408Y17410D02*
D03*
X6760Y18700D02*
D03*
X16408Y15410D02*
D03*
X13072Y4350D02*
D03*
X16024Y25838D02*
D03*
X14360Y22600D02*
D03*
X18130Y25682D02*
D03*
X10060Y15700D02*
D03*
X13574Y26288D02*
D03*
X18040Y16755D02*
D03*
X6410Y16800D02*
D03*
X6750Y9750D02*
D03*
Y3500D02*
D03*
X6050Y7200D02*
D03*
X18780Y25382D02*
D03*
X6800Y12800D02*
D03*
X17910Y20470D02*
D03*
X15420Y21760D02*
D03*
X8010Y18700D02*
D03*
X9730Y12520D02*
D03*
X10940Y12050D02*
D03*
X23890Y5640D02*
D03*
D46*
X15340Y24962D02*
D03*
Y24622D02*
D03*
X15030Y24962D02*
D03*
Y24622D02*
D03*
D47*
X11180Y12780D02*
D03*
X10010Y17700D02*
D03*
M02*
